<?xml version="1.0" encoding="utf-8"?>
<!-- Generator: Adobe Illustrator 23.0.1, SVG Export Plug-In . SVG Version: 6.00 Build 0)  -->
<svg version="1.1" id="Layer_1" xmlns="http://www.w3.org/2000/svg" xmlns:xlink="http://www.w3.org/1999/xlink" x="0px" y="0px"
	 viewBox="0 0 402.88 141.76" style="enable-background:new 0 0 402.88 141.76;" xml:space="preserve">
<style type="text/css">
	.st0{fill:#191919;}
</style>
<g>
	<path class="st0" d="M113.6,1.64L69.51,1.48L57.44,1.44L57.4,13.51l-0.41,115.12l-45.49-0.16L11.94,2.82c0-1.12-0.98-2.11-2.1-2.11
		L-1.67,0.67l0,0c0.98,0.85,1.54,2.25,1.53,3.52l-0.44,124.39l-0.04,12.07l12.07,0.04l44.79,0.16l12.78,0.05l44.79,0.16l12.07,0.04
		l0.04-12.07l0.18-51.1l0.05-12.78l0.18-50.4l0.02-4.35c0.02-4.63-3.76-8.44-8.39-8.45L113.6,1.64L113.6,1.64z M114.07,64.82
		l-14.88-0.05l-0.03,8.56c0,1.12,0.98,2.11,2.1,2.11l12.78,0.05l-0.19,53.21l-44.79-0.16l0.41-115.12L64.7,13.4l4.77,0.02
		l41.98,0.15c1.54,0.01,2.8,1.27,2.8,2.82L114.07,64.82z"/>
	<g>
		<path class="st0" d="M155.82,11.75l9.27,0.03l-0.08,22.32l13.2,0.05l-0.03,7.72l-22.46-0.08L155.82,11.75z"/>
		<path class="st0" d="M191.62,11.88l8.99,0.03l10.85,29.94l-9.55-0.03l-1.25-4.22l-9.55-0.03l-1.42,4.21l-9.27-0.03L191.62,11.88z
			 M198.71,31.14l-2.63-9.28l-0.14,0l-2.98,9.26L198.71,31.14z"/>
		<path class="st0" d="M241.26,30.45c-0.03,8.28-4.4,12.34-13.66,12.31c-9.27-0.03-13.6-3.98-13.57-12.4l0.06-18.39l9.27,0.03
			l-0.06,16.29c-0.01,3.09-0.02,6.88,4.47,6.9c4.35,0.02,4.37-3.78,4.38-6.86l0.06-16.29l9.27,0.03l-0.06,18.39L241.26,30.45z"/>
		<path class="st0" d="M247.08,12.08l17.55,0.06c5.19,0.02,9.82,2.98,9.8,8.6c-0.01,3.09-1.43,6.31-4.52,7.43
			c2.52,0.99,4.06,3.81,4.33,7.46c0.14,1.4,0.12,5.05,0.96,6.46l-9.27-0.03c-0.42-1.55-0.55-3.09-0.69-4.64
			c-0.13-2.81-0.54-5.9-4.19-5.91l-4.91-0.02l-0.04,10.39l-9.27-0.03l0.11-29.76L247.08,12.08z M256.16,25.16l4.77,0.02
			c1.68,0.01,4.07-0.27,4.08-2.93c0.01-1.83-0.97-2.95-4.62-2.96l-4.35-0.02l-0.02,5.9L256.16,25.16z"/>
		<path class="st0" d="M279.09,12.19l9.27,0.03l-0.11,29.9l-9.27-0.03L279.09,12.19z"/>
		<path class="st0" d="M155.67,55.14l16.43,0.06c7.86,0.03,9.53,4.53,9.52,7.47c-0.01,3.09-1.42,4.63-3.67,5.88
			c2.66,0.85,5.18,3.11,5.17,7.46c-0.02,6.04-5.23,9.11-10.56,9.09l-16.99-0.06L155.67,55.14z M169.66,66.84
			c1.97,0.01,3.09-0.55,3.1-2.52c0.01-1.54-1.26-2.11-3.08-2.12l-4.91-0.02l-0.02,4.49l4.91,0.02L169.66,66.84z M170.19,77.93
			c1.83,0.01,3.65-0.55,3.66-2.8c0.01-1.83-1.11-2.67-3.22-2.68l-5.76-0.02l-0.02,5.62l5.33,0.02L170.19,77.93z"/>
		<path class="st0" d="M187.82,55.25l17.55,0.06c5.19,0.02,9.82,2.98,9.8,8.6c-0.01,3.09-1.43,6.31-4.52,7.43
			c2.52,0.99,4.06,3.81,4.33,7.46c0.14,1.4,0.12,5.05,0.96,6.46l-9.27-0.03c-0.42-1.55-0.55-3.09-0.69-4.64
			c-0.13-2.81-0.54-5.9-4.19-5.91l-4.91-0.02l-0.04,10.39l-9.27-0.03l0.11-29.76L187.82,55.25z M197.04,68.34l4.77,0.02
			c1.68,0.01,4.07-0.27,4.08-2.93c0.01-1.83-0.97-2.95-4.62-2.96l-4.35-0.02l-0.02,5.9L197.04,68.34z"/>
		<path class="st0" d="M234.29,54.71c9.13,0.03,15.14,6.65,15.11,15.78c-0.03,9.13-6.09,15.7-15.22,15.67
			c-9.13-0.03-15.14-6.65-15.11-15.78C218.96,61.11,225.16,54.68,234.29,54.71z M234.21,78.58c2.39,0.01,5.9-1.52,5.93-8.26
			c0.02-6.74-3.62-8.3-5.87-8.3c-2.39-0.01-5.9,1.52-5.93,8.26C228.17,77.01,231.82,78.57,234.21,78.58z"/>
		<path class="st0" d="M259.81,63.08l-8.42-0.03l0.03-7.72l26.11,0.09l-0.03,7.72l-8.42-0.03L269,85.44l-9.27-0.03L259.81,63.08z"/>
		<path class="st0" d="M281.88,55.58l9.27,0.03L291.11,66l8.7,0.03l0.04-10.39l9.27,0.03l-0.11,29.9l-9.27-0.03l0.04-11.93
			l-8.7-0.03l-0.04,11.93l-9.27-0.03L281.88,55.58z"/>
		<path class="st0" d="M314.87,55.7l24.85,0.09l-0.03,7.72l-15.58-0.06l-0.01,3.79l14.18,0.05l-0.03,7.16l-14.18-0.05l-0.01,3.79
			l16.01,0.06l-0.03,7.72l-25.27-0.09L314.87,55.7z"/>
		<path class="st0" d="M345.48,55.81l17.55,0.06c5.19,0.02,9.82,2.98,9.8,8.6c-0.01,3.09-1.43,6.31-4.52,7.43
			c2.52,0.99,4.06,3.81,4.33,7.46c0.14,1.4,0.12,5.05,0.96,6.46l-9.27-0.03c-0.42-1.55-0.55-3.09-0.69-4.64
			c-0.13-2.81-0.54-5.9-4.19-5.91l-4.91-0.02L354.5,85.6l-9.27-0.03l0.11-29.76L345.48,55.81z M354.56,68.89l4.77,0.02
			c1.68,0.01,4.07-0.27,4.08-2.93c0.01-1.83-0.97-2.95-4.62-2.96L354.44,63l-0.02,5.9L354.56,68.89z"/>
		<path class="st0" d="M384.86,75.74c0,0.7,0.14,1.4,0.27,1.97c0.7,1.83,2.66,2.26,4.34,2.26c1.54,0.01,3.79-0.55,3.8-2.65
			c0.01-1.54-1.26-1.97-6.45-3.53c-4.77-1.42-10.1-2.7-10.08-8.74c0.02-6.88,5.93-9.95,12.11-9.93c6.46,0.02,12.35,2.57,12.46,9.87
			l-8.7-0.03c0.14-1.12-0.27-1.83-1.11-2.39c-0.84-0.56-1.82-0.71-2.67-0.71c-1.26,0-3.37,0.27-3.38,1.95
			c0.13,2.11,4.48,2.68,8.69,3.82c4.21,1.28,8.41,3.12,8.39,8.73c-0.03,7.86-7.2,10.36-13.94,10.34
			c-3.37-0.01-13.19-1.31-13.16-10.86l9.41,0.03L384.86,75.74z"/>
	</g>
	<path class="st0" d="M155.88,113.37l4.58,0.02l-0.07,20.56l-4.58-0.02L155.88,113.37z"/>
	<path class="st0" d="M175.88,113.44l4.45,0.02l8.56,13.78l0,0l0.05-13.75l4.17,0.01l-0.07,20.56l-4.58-0.02l-8.29-13.78l0,0
		l-0.05,13.75l-4.17-0.01l0.07-20.56L175.88,113.44z"/>
	<path class="st0" d="M213.24,117.32l-6.11-0.02l0.01-3.75l16.81,0.06l-0.01,3.75l-6.25-0.02l-0.06,16.81l-4.58-0.02l0.06-16.81
		L213.24,117.32z"/>
	<path class="st0" d="M237.84,113.66l15.42,0.05l-0.01,3.75l-10.83-0.04l-0.02,4.45l10,0.04l-0.01,3.47l-10-0.04l-0.02,5l11.11,0.04
		l-0.01,3.75l-15.56-0.05l0.07-20.42L237.84,113.66z"/>
	<path class="st0" d="M267.98,113.77l11.11,0.04c3.75,0.01,5.96,2.52,5.95,5.72c-0.01,2.36-0.99,4.16-3.21,5.13l0,0
		c2.22,0.56,2.91,2.65,3.04,4.87c0.13,1.25-0.01,3.75,0.82,4.86l-4.58-0.02c-0.55-1.25-0.54-3.34-0.68-4.86
		c-0.27-2.22-1.1-3.06-3.46-3.07l-4.58-0.02l-0.03,8.06l-4.58-0.02l0.07-20.7L267.98,113.77z M272.39,123.09l5,0.02
		c2.08,0.01,3.06-0.82,3.07-2.91c0.01-1.94-1.1-2.92-3.05-2.93l-5-0.02L272.39,123.09z"/>
	<path class="st0" d="M300.21,113.88l4.58,0.02l-0.07,20.56l-4.58-0.02L300.21,113.88z"/>
	<path class="st0" d="M329.38,113.57c6.39,0.02,10.12,4.76,10.1,10.87c-0.02,5.97-3.79,10.68-10.18,10.66
		c-6.39-0.02-10.12-4.76-10.1-10.73C319.36,118.25,323.13,113.54,329.38,113.57z M329.32,131.21c4.03,0.01,5.57-3.45,5.58-6.93
		c0.01-3.61-1.5-7.09-5.53-7.1c-4.03-0.01-5.57,3.45-5.58,7.06C323.78,127.72,325.29,131.19,329.32,131.21z"/>
	<path class="st0" d="M354.11,114.07l11.11,0.04c3.75,0.01,5.96,2.52,5.95,5.72c-0.01,2.36-0.99,4.16-3.21,5.13l0,0
		c2.22,0.56,2.91,2.65,3.04,4.87c0.13,1.25-0.01,3.75,0.82,4.86l-4.58-0.02c-0.55-1.25-0.54-3.34-0.68-4.86
		c-0.27-2.22-1.1-3.06-3.46-3.07l-4.58-0.02l-0.03,8.06l-4.58-0.02l0.07-20.7L354.11,114.07z M358.66,123.39l5,0.02
		c2.08,0.01,3.06-0.82,3.07-2.91c0.01-1.94-1.1-2.92-3.05-2.93l-5-0.02L358.66,123.39z"/>
	<path class="st0" d="M389.48,127.95c-0.01,2.78,2.07,3.76,4.57,3.77c1.53,0.01,4.03-0.4,4.04-2.49c0.01-2.22-3.05-2.51-6.1-3.36
		c-3.05-0.71-6.1-2.11-6.09-5.86c0.01-4.17,4.05-6.24,7.66-6.22c4.31,0.02,8.19,1.83,8.17,6.7l-4.31-0.02
		c-0.13-2.5-1.8-3.06-4.02-3.07c-1.39,0-3.06,0.54-3.06,2.35c-0.01,1.53,0.97,1.81,6.1,3.08c1.53,0.28,6.11,1.41,6.09,5.99
		c-0.01,3.75-2.94,6.52-8.64,6.5c-4.58-0.02-8.88-2.25-8.73-7.39L389.48,127.95L389.48,127.95z"/>
</g>
</svg>
