<?xml version="1.0" encoding="utf-8"?>
<!-- Generator: Adobe Illustrator 23.0.1, SVG Export Plug-In . SVG Version: 6.00 Build 0)  -->
<svg version="1.1" id="Layer_1" xmlns="http://www.w3.org/2000/svg" xmlns:xlink="http://www.w3.org/1999/xlink" x="0px" y="0px"
	 viewBox="0 0 128.4 140.9" style="enable-background:new 0 0 128.4 140.9;" xml:space="preserve">
<style type="text/css">
	.st0{fill:#191919;}
</style>
<g>
	<path class="st0" d="M115.6,1.6L71.5,1.5l-12.1,0l0,12.1L59,128.6l-45.5-0.2L13.9,2.8c0-1.1-1-2.1-2.1-2.1l-11.5,0l0,0
		c1,0.8,1.5,2.3,1.5,3.5L1.4,128.6l0,12.1l12.1,0l44.8,0.2l12.8,0.1l44.8,0.2l12.1,0l0-12.1l0.2-51.1l0.1-12.8l0.2-50.4l0-4.4
		c0-4.6-3.8-8.4-8.4-8.4L115.6,1.6L115.6,1.6z M116.1,64.8l-14.9-0.1l0,8.6c0,1.1,1,2.1,2.1,2.1l12.8,0.1l-0.2,53.2l-44.8-0.2
		l0.4-115.1l-4.8,0l4.8,0l42,0.1c1.5,0,2.8,1.3,2.8,2.8L116.1,64.8z"/>
</g>
</svg>
