<svg height="512pt" viewBox="-1 0 512 512.00099" width="512pt" xmlns="http://www.w3.org/2000/svg"><path fill="#fff" d="M502.695 337.922c4.2 0 7.606-3.406 7.606-7.606V146.82c0-10.402-4.047-20.191-11.41-27.586-7.375-7.343-17.164-11.39-27.567-11.39h-86.52V7.602a7.6 7.6 0 0 0-7.6-7.602H191.507a7.6 7.6 0 0 0-7.602 7.602v107.816a7.6 7.6 0 0 0 7.602 7.602 7.6 7.6 0 0 0 7.601-7.602V15.207h170.493v92.637h-83.965c-.004 0-.012.004-.02.004-10.394.004-20.18 4.047-27.566 11.41a39.326 39.326 0 0 0-8.918 13.914 36.548 36.548 0 0 0-5.262-.383H77.551c-4.2 0-7.602 3.402-7.602 7.602s3.403 7.601 7.602 7.601h166.32c11.762 0 21.328 9.567 21.328 21.328v306.15c0 11.758-9.566 21.328-21.328 21.328H36.535c-11.762 0-21.328-9.567-21.328-21.328V169.32c0-11.757 9.566-21.328 21.328-21.328h15.672c4.2 0 7.602-3.402 7.602-7.601s-3.403-7.602-7.602-7.602H36.535C16.387 132.79 0 149.176 0 169.32v306.15C0 495.613 16.387 512 36.535 512h207.336c20.145 0 36.535-16.387 36.535-36.531V185.797h29.004v287.45a7.6 7.6 0 0 0 7.602 7.6h185.687a7.6 7.6 0 0 0 7.602-7.6V355.66c0-4.2-3.403-7.601-7.602-7.601s-7.605 3.402-7.605 7.601v109.98h-170.48V146.82c0-8.703-2.833-16.976-8.067-23.77h154.777c6.352 0 12.332 2.473 16.813 6.938a23.684 23.684 0 0 1 6.957 16.832v183.496c0 4.2 3.406 7.606 7.601 7.606zm-200.25-207.93c4.493 4.5 6.965 10.473 6.965 16.828v23.774h-29.008v-1.274c0-12.972-6.804-24.382-17.023-30.863 1.172-3.144 3-6.016 5.426-8.45a23.684 23.684 0 0 1 16.832-6.956h.02a23.67 23.67 0 0 1 16.788 6.941zm0 0"/><path fill="#fff" d="M249.992 170.8a7.6 7.6 0 0 0-7.601-7.6H38.01a7.603 7.603 0 0 0-7.6 7.6V246c0 4.2 3.405 7.605 7.6 7.605h204.38a7.603 7.603 0 0 0 7.601-7.605zm-15.203 67.598H45.617v-59.996H234.79zm7.601 32.052H38.013a7.603 7.603 0 0 0-7.602 7.6v196.76a7.606 7.606 0 0 0 7.602 7.605H242.39a7.603 7.603 0 0 0 7.601-7.605V278.05a7.6 7.6 0 0 0-7.601-7.602zm-7.6 67.241h-51.5v-52.039h51.5zm0 62.274h-51.5v-47.07h51.5zm-189.173-47.07h51.496v47.07H45.617zm66.7 0h55.769v47.07h-55.77zm55.769-67.243v52.04h-55.77v-52.04zm-70.973 0v52.04H45.617v-52.04zm-51.496 129.52h51.496v52.035H45.617zm66.7 52.035v-52.035h55.769v52.035zm70.976 0v-52.035h51.496v52.035zm183.664-320.871h-20.273c-4.2 0-7.606 3.402-7.606 7.601s3.406 7.602 7.606 7.602h20.273a7.603 7.603 0 0 0 0-15.203zm106.433 0h-80.077c-4.2 0-7.606 3.402-7.606 7.601s3.406 7.602 7.605 7.602h80.079c4.199 0 7.601-3.402 7.601-7.601s-3.402-7.602-7.601-7.602zM366.957 317.645h-20.273a7.604 7.604 0 0 0 0 15.207h20.273a7.604 7.604 0 0 0 0-15.207zm114.035 7.605c0-4.2-3.402-7.605-7.601-7.605h-80.079a7.604 7.604 0 0 0 0 15.207h80.079a7.6 7.6 0 0 0 7.601-7.602zm-114.035-50.43h-20.273c-4.2 0-7.606 3.403-7.606 7.602s3.406 7.601 7.606 7.601h20.273a7.603 7.603 0 0 0 0-15.203zm106.433 0h-80.077c-4.2 0-7.606 3.403-7.606 7.602s3.406 7.601 7.605 7.601h80.079c4.199 0 7.601-3.402 7.601-7.601s-3.402-7.602-7.601-7.602zm-106.433-42.828h-20.273c-4.2 0-7.606 3.403-7.606 7.602s3.406 7.601 7.606 7.601h20.273a7.603 7.603 0 0 0 0-15.203zm106.433 0h-80.077c-4.2 0-7.606 3.403-7.606 7.602s3.406 7.601 7.605 7.601h80.079c4.199 0 7.601-3.402 7.601-7.601s-3.402-7.602-7.601-7.602zm-106.433-42.828h-20.273a7.603 7.603 0 0 0 0 15.203h20.273a7.603 7.603 0 0 0 0-15.203zm106.433 0h-80.077a7.602 7.602 0 0 0-.001 15.203h80.079c4.199 0 7.601-3.402 7.601-7.601s-3.402-7.602-7.601-7.602zM220.984 50.656h20.274a7.604 7.604 0 0 0 0-15.207h-20.274c-4.199 0-7.601 3.403-7.601 7.602s3.402 7.605 7.601 7.605zm46.629 0h80.082c4.2 0 7.602-3.406 7.602-7.605s-3.402-7.602-7.602-7.602h-80.082c-4.195 0-7.601 3.403-7.601 7.602s3.406 7.605 7.601 7.605zm-46.629 42.828h20.274a7.604 7.604 0 0 0 0-15.207h-20.274a7.6 7.6 0 0 0-7.601 7.602c0 4.2 3.402 7.605 7.601 7.605zm46.629 0h80.082c4.2 0 7.602-3.406 7.602-7.605a7.6 7.6 0 0 0-7.602-7.602h-80.082a7.603 7.603 0 0 0-7.601 7.602c0 4.2 3.406 7.605 7.601 7.605zM410.082 445.25c.758.715 1.855 1.125 3.016 1.125h.183a5.228 5.228 0 0 0 5.219-5.219v-1.105c11.863-2.535 18.66-10.742 18.66-22.543 0-13.36-8.95-18.7-18.66-22.45v-18.726c3.125.492 5.223 1.555 6.918 2.414 1.46.738 2.617 1.324 3.906 1.324 4.13 0 5.914-5.047 5.914-7.62 0-5.493-8.601-8.04-16.738-8.598v-1.133c0-2.88-2.344-5.219-5.219-5.219s-5.219 2.34-5.219 5.219v1.465c-12.433 2.078-19.562 9.675-19.562 20.863 0 13.754 11.254 18.078 19.563 21.207v21.016c-4.583-.872-7.563-3.184-9.97-5.051-1.96-1.524-3.507-2.727-5.284-2.727-3.555 0-6.23 4.688-6.23 7.73 0 5.739 8.812 12.622 21.483 13.41v.52c0 1.614.743 3.114 2.02 4.098zm-2.02-68.297v14.133c-3.175-1.461-6.03-3.41-6.03-7.422 0-3.223 2.085-5.539 6.03-6.71zm10.438 49.625v-15.89c3.54 2.09 5.125 4.64 5.125 8.207 0 3.593-1.77 6.242-5.125 7.683zm0 0"/><path fill="#fff" d="M202.234 229.457h16.22c4.198 0 7.6-3.406 7.6-7.602a7.603 7.603 0 0 0-7.6-7.605h-16.22a7.604 7.604 0 0 0 0 15.207zm0 0"/></svg>