<svg xmlns="http://www.w3.org/2000/svg" viewBox="0 0 512 512"><path fill="#fff" d="M307.84 253.131a7.502 7.502 0 0 0 10.607 0l143.728-143.728c7.875-7.876 12.213-18.348 12.213-29.485s-4.338-21.609-12.213-29.484c-7.876-7.876-18.347-12.214-29.485-12.214s-21.608 4.338-29.484 12.213l-16.611 16.611-8.298-8.298c-13.967-13.965-36.691-13.965-50.658 0L214.486 171.9a21.778 21.778 0 0 0-6.424 15.505 21.778 21.778 0 0 0 6.423 15.504 21.777 21.777 0 0 0 15.505 6.423c5.858 0 11.363-2.28 15.504-6.422l6.606-6.604c3.909-3.91 5.201-9.462 3.877-14.457l72.823-72.822c5.57-5.572 13.73-7.356 20.939-5.127L169.417 284.223l-13.36 13.36-23.024 23.024a7.69 7.69 0 0 0-1.461 2.064l-15.19 31.721H7.5a7.499 7.499 0 0 0-7.5 7.5v104.387c0 4.143 3.357 7.5 7.5 7.5h85.16c4.143 0 7.5-3.357 7.5-7.5s-3.357-7.5-7.5-7.5H15v-89.387h94.199l-2.816 5.881a7.483 7.483 0 0 0-.421 5.333c-10.065 13.367-12.348 25.344-5.824 31.867 2.491 2.49 5.753 3.707 9.574 3.707 6.247 0 13.989-3.265 22.279-9.522a7.484 7.484 0 0 0 5.344-.431l52.602-25.188a7.577 7.577 0 0 0 2.064-1.461l10.186-10.186H449.16c4.143 0 7.5-3.357 7.5-7.5s-3.357-7.5-7.5-7.5H217.188l11.2-11.2 66.245-66.245a7.5 7.5 0 0 0-10.607-10.607l-60.941 60.942-37.757-37.756L311.463 163.39l37.756 37.755-41.379 41.379a7.5 7.5 0 0 0 0 10.607zM111.758 400.857c.567-1.968 1.902-4.981 4.407-8.719l4.309 4.309c-3.732 2.503-6.745 3.845-8.716 4.41zm23.887-10.452l-13.44-13.44 18.319-38.258 33.378 33.379-38.257 18.319zm51.054-26.737l-37.756-37.757 12.417-12.417 37.757 37.756-12.418 12.418zm25.778-25.779l-2.754 2.754-37.757-37.756 2.754-2.754 37.757 37.756zM413.813 61.04c5.042-5.042 11.747-7.819 18.877-7.819 7.132 0 13.836 2.777 18.878 7.82 10.41 10.409 10.41 27.347 0 37.756l-2.883 2.883-37.755-37.757 2.883-2.883zm-13.49 13.491l37.755 37.756-3.12 3.12-37.755-37.756 3.12-3.12zm-82.13 23.888l-76.7 76.7a7.468 7.468 0 0 0 .001 10.579l-6.606 6.605c-1.309 1.309-3.048 2.028-4.897 2.028s-3.589-.72-4.898-2.029a6.88 6.88 0 0 1-2.029-4.897c0-1.849.721-3.589 2.03-4.897L338.246 69.354c8.117-8.119 21.326-8.119 29.443 0l8.298 8.298L361.1 92.54c-13.764-7.736-31.499-5.528-42.907 5.879zm68.402-10.161l37.755 37.756-41.302 41.302-37.756-37.755 41.303-41.303zm-64.524 64.525l12.614-12.614 37.756 37.755-12.614 12.614-37.756-37.755z"/><path fill="#fff" d="M504.5 354.393h-21.66c-4.143 0-7.5 3.357-7.5 7.5s3.357 7.5 7.5 7.5H497v89.387H126.34c-4.143 0-7.5 3.357-7.5 7.5s3.357 7.5 7.5 7.5H504.5c4.143 0 7.5-3.357 7.5-7.5V361.893c0-4.143-3.357-7.5-7.5-7.5z"/><path fill="#fff" d="M359.997 428.679H80.664c-4.143 0-7.5 3.357-7.5 7.5s3.357 7.5 7.5 7.5h279.333c4.143 0 7.5-3.357 7.5-7.5s-3.357-7.5-7.5-7.5zm71.339-29.344H199.054c-4.143 0-7.5 3.357-7.5 7.5s3.357 7.5 7.5 7.5h232.282c4.143 0 7.5-3.357 7.5-7.5s-3.357-7.5-7.5-7.5zm0 29.344h-45.504c-4.143 0-7.5 3.357-7.5 7.5s3.357 7.5 7.5 7.5h45.504c4.143 0 7.5-3.357 7.5-7.5s-3.357-7.5-7.5-7.5z"/></svg>