<svg xmlns="http://www.w3.org/2000/svg" viewBox="0 0 463 463"><path fill="#fff" d="M423 219.5V211h16.5a7.5 7.5 0 0 0 7.5-7.5V179h8.5a7.5 7.5 0 0 0 7.5-7.5v-24a7.5 7.5 0 0 0-3.779-6.512l-224-128a7.503 7.503 0 0 0-7.442 0l-224 128A7.499 7.499 0 0 0 0 147.5v24a7.5 7.5 0 0 0 7.5 7.5H16v24.5a7.5 7.5 0 0 0 7.5 7.5H40v8.5c0 5.827 3.235 10.908 8 13.555V372H23.5a7.5 7.5 0 0 0-7.5 7.5V404H7.5a7.5 7.5 0 0 0-7.5 7.5v32a7.5 7.5 0 0 0 7.5 7.5h448a7.5 7.5 0 0 0 7.5-7.5v-32a7.5 7.5 0 0 0-7.5-7.5H447v-24.5a7.5 7.5 0 0 0-7.5-7.5H415V233.055c4.765-2.647 8-7.728 8-13.555zm-15 0a.5.5 0 0 1-.5.5h-32a.5.5 0 0 1-.5-.5V211h33v8.5zM335 372V233.055c4.765-2.647 8-7.728 8-13.555V211h17v8.5c0 5.827 3.235 10.908 8 13.555V372h-33zm-32 0V235h17v137h-17zm-48 0V233.055c4.765-2.647 8-7.728 8-13.555V211h17v8.5c0 5.827 3.235 10.908 8 13.555V372h-33zm-32 0V235h17v137h-17zm-48 0V233.055c4.765-2.647 8-7.728 8-13.555V211h17v8.5c0 5.827 3.235 10.908 8 13.555V372h-33zm-32 0V235h17v137h-17zm-48 0V233.055c4.765-2.647 8-7.728 8-13.555V211h17v8.5c0 5.827 3.235 10.908 8 13.555V372H95zm73-161v8.5a.5.5 0 0 1-.5.5h-32a.5.5 0 0 1-.5-.5V211h33zm80 0v8.5a.5.5 0 0 1-.5.5h-32a.5.5 0 0 1-.5-.5V211h33zm80 0v8.5a.5.5 0 0 1-.5.5h-32a.5.5 0 0 1-.5-.5V211h33zM15 151.852L231.5 28.138 448 151.852V164H15v-12.148zM31 179h401v17H31v-17zm57 32v8.5a.5.5 0 0 1-.5.5h-32a.5.5 0 0 1-.5-.5V211h33zm-25 24h17v137H63V235zm385 201H15v-17h433v17zm-16-32H31v-17h401v17zm-49-32V235h17v137h-17z"/></svg>