<svg height="640" viewBox="-31 0 479 480" width="640" xmlns="http://www.w3.org/2000/svg"><path fill="#2d6b7f" d="M376.5 40c0-22.398-17.602-40-40-40h-296C18.102 0 .5 17.602.5 40v64h64v336c0 22.398 17.602 40 40 40h272c22.398 0 40-17.602 40-40v-40h-40zm-312 48h-48V40c0-13.602 10.398-24 24-24s24 10.398 24 24zm16 352V40c0-8.8-3.2-16.8-8-24h264c13.602 0 24 10.398 24 24v360h-232v40c0 13.602-10.398 24-24 24s-24-10.398-24-24zm320-24v24c0 13.602-10.398 24-24 24h-240c5.602-7.2 8-15.2 8-24v-24zm0 0"/><path fill="#2d6b7f" d="M280.5 256h64v16h-64zm-184 0h168v16h-168zm88 32h160v16h-160zm-88 0h72v16h-72zm144 64h104v16h-104zm-144 0h128v16h-128zm110.398-188.8l9.602 6.402 9.602-6.403C254.898 144 272.5 111.2 272.5 76.801V50.398L216.5 32l-56 18.398v26.403c0 34.398 17.602 67.199 46.398 86.398zM176.5 61.601L216.5 48l40 13.602V76.8c0 29.597-14.398 56.8-39.2 73.597h-.8l-.8-.796c-24.802-16-39.2-44-39.2-73.602zm0 0"/><path fill="#2d6b7f" d="M240.5 80.8l-16-1.6c-1.602 13.6-8.8 26.402-20 34.402l8.8 13.597c15.2-11.199 25.598-28 27.2-46.398zm-96 239.2h200v16h-200zm-48 0h32v16h-32zm88-96h160v16h-160zm-88 0h72v16h-72zm64-40h112v16h-112zm0 0"/></svg>