<svg xmlns="http://www.w3.org/2000/svg" viewBox="0 0 511.985 511.985" width="512" height="512"><path fill="#2d6b7f" d="M507.448 180.339L387.935 60.826a15.414 15.414 0 0 0-10.972-4.545 15.412 15.412 0 0 0-10.972 4.545l-38.629 38.628a15.413 15.413 0 0 0-4.544 10.972c0 3.717 1.307 7.227 3.688 10.027l-15.599 15.599c-16.626-7.286-35.441-8.042-52.519-2.252-19.23-5.777-39.804-5.056-57.577 1.987l-15.333-15.333a15.394 15.394 0 0 0 3.688-10.027c0-4.145-1.614-8.041-4.544-10.972l-38.628-38.628a15.414 15.414 0 0 0-10.972-4.545 15.41 15.41 0 0 0-10.971 4.545L4.537 180.339c-6.049 6.049-6.049 15.893 0 21.943l38.629 38.628a15.413 15.413 0 0 0 10.972 4.544c3.35 0 6.528-1.07 9.175-3.022l56.473 56.473a33.997 33.997 0 0 0-2.764 2.468l-15.085 15.085c-13.054 13.054-13.054 34.293 0 47.347 6.527 6.527 15.1 9.79 23.673 9.79 1.155 0 2.309-.064 3.459-.183-.998 9.686 2.201 19.727 9.608 27.133 6.527 6.527 15.1 9.79 23.673 9.79 2.646 0 5.292-.313 7.878-.935.095 8.446 3.351 16.863 9.781 23.293 6.527 6.527 15.1 9.79 23.673 9.79 3.934 0 7.865-.696 11.602-2.07l5.019 5.018c6.806 6.806 16.126 10.273 25.283 10.273 7.987 0 15.85-2.639 21.804-8.002 6.681-6.016 10.585-14.19 11.057-23.103 11.37 3.678 24.313 1.697 33.103-6.218 6.618-5.959 10.511-14.038 11.042-22.852 11.464 3.853 24.607 1.92 33.499-6.087 6.627-5.968 10.522-14.061 11.044-22.89 11.45 3.826 24.563 1.885 33.438-6.107 6.911-6.223 10.851-14.756 11.093-24.026.239-9.14-3.331-18.089-9.794-24.553l-11.317-11.317 58.117-58.117a15.384 15.384 0 0 0 9.175 3.022c4.145 0 8.041-1.614 10.972-4.544l38.629-38.629c6.049-6.049 6.049-15.893 0-21.942zm-394.905 172.86c-7.205-7.205-7.205-18.929 0-26.134l15.085-15.085c3.603-3.603 8.335-5.404 13.067-5.404s9.464 1.801 13.067 5.404c7.205 7.205 7.205 18.929 0 26.134l-15.085 15.085c-7.205 7.205-18.929 7.205-26.134 0zm36.74 36.74c-3.49-3.49-5.413-8.131-5.413-13.067s1.922-9.577 5.413-13.067l7.916-7.916c3.603-3.603 8.335-5.404 13.067-5.404s9.464 1.801 13.067 5.404c7.205 7.205 7.205 18.929 0 26.134l-7.916 7.916c-3.49 3.49-8.131 5.413-13.067 5.413s-9.577-1.923-13.067-5.413zm41.333 32.148c-7.205-7.205-7.205-18.929 0-26.134 3.603-3.603 8.335-5.404 13.067-5.404s9.464 1.801 13.067 5.404c7.205 7.205 7.205 18.929 0 26.134s-18.929 7.205-26.134 0zm206.056-86.06c-.134 5.116-2.313 9.829-6.136 13.271-6.805 6.129-19.409 5.303-26.443-1.731l-28.417-28.417a7.5 7.5 0 0 0-10.606 0 7.5 7.5 0 0 0 0 10.606l21.714 21.714c3.62 3.62 5.54 8.434 5.406 13.554-.134 5.116-2.313 9.829-6.135 13.271-6.807 6.128-19.411 5.303-26.444-1.731l-28.475-28.475a7.5 7.5 0 0 0-10.606 0 7.5 7.5 0 0 0 0 10.606l21.713 21.714c3.62 3.62 5.54 8.434 5.406 13.554-.134 5.116-2.313 9.829-6.135 13.271-6.806 6.128-19.409 5.304-26.443-1.73l-28.094-28.094a7.5 7.5 0 0 0-10.606 0 7.5 7.5 0 0 0 0 10.606l21.713 21.713.027.027c3.603 3.617 5.513 8.419 5.379 13.527-.134 5.116-2.313 9.829-6.136 13.271-6.805 6.128-19.408 5.304-26.443-1.731l-2.86-2.86c12.347-13.104 12.123-33.802-.693-46.618-6.682-6.682-15.51-9.935-24.286-9.776 2.124-10.618-.917-22.073-9.131-30.288-5.969-5.969-13.649-9.199-21.476-9.71 3.833-11.633 1.141-24.964-8.095-34.2-8.16-8.16-19.52-11.219-30.079-9.177L74.057 231.96l2.557-2.557a7.5 7.5 0 0 0 0-10.606 7.5 7.5 0 0 0-10.606 0l-11.504 11.504c-.038.037-.151.151-.365.151a.492.492 0 0 1-.365-.151l-38.628-38.628a.517.517 0 0 1 0-.731L134.658 71.431c.037-.037.151-.151.364-.151.214 0 .328.114.365.151l38.629 38.628c.037.038.151.151.151.365 0 .213-.114.327-.151.365l-85.475 85.475a7.5 7.5 0 0 0 0 10.606 7.5 7.5 0 0 0 10.606 0l75.769-75.769 18.901 18.901a7.497 7.497 0 0 0 8.536 1.465c10.435-4.985 22.709-7.104 34.957-6.303a72.616 72.616 0 0 0-6.783 5.962l-41.124 41.124c-13.054 13.054-13.054 34.293 0 47.347 6.323 6.323 14.73 9.806 23.673 9.806s17.35-3.482 23.673-9.806l29.787-29.787c3.327-3.326 8.741-3.327 12.067 0l112.662 112.662c3.622 3.62 5.542 8.434 5.407 13.555zm100.17-144.352l-38.629 38.628c-.038.037-.151.151-.365.151-.213 0-.327-.114-.365-.151l-84.974-84.974a7.5 7.5 0 0 0-10.606 0 7.5 7.5 0 0 0 0 10.606l76.027 76.027-57.979 57.979-90.739-90.74c-9.176-9.174-24.105-9.173-33.28 0l-29.787 29.788c-7.205 7.205-18.929 7.205-26.134 0s-7.205-18.929 0-26.134l41.124-41.124c22.399-22.398 58.845-22.398 81.245 0a7.5 7.5 0 0 0 10.606 0 7.5 7.5 0 0 0 0-10.606 72.777 72.777 0 0 0-8.593-7.347L337.07 131.1l2.108 2.108a7.5 7.5 0 0 0 10.606 0 7.5 7.5 0 0 0 0-10.606l-11.814-11.814c-.037-.038-.151-.151-.151-.365s.114-.328.151-.365l38.629-38.629c.037-.037.151-.151.365-.151.213 0 .327.114.365.151l119.513 119.513a.52.52 0 0 1 0 .733z"/></svg>