<svg xmlns="http://www.w3.org/2000/svg" viewBox="0 0 512 512"><path d="M469.779 94.063H352.573l-9.106-36.426a42.164 42.164 0 0 0-40.962-31.983h-93.011a42.167 42.167 0 0 0-40.963 31.984l-9.105 36.425H42.221C18.941 94.063 0 113.003 0 136.284v307.841c0 23.281 18.941 42.221 42.221 42.221h427.557c23.281 0 42.221-18.941 42.221-42.221V136.284c.001-23.281-18.94-42.221-42.22-42.221zM184.086 61.528a26.157 26.157 0 0 1 25.409-19.841h93.011a26.158 26.158 0 0 1 25.409 19.84l8.133 32.536h-18.732l-7.033-28.132a8.014 8.014 0 0 0-7.777-6.072h-93.011a8.016 8.016 0 0 0-7.777 6.072l-7.031 28.132h-18.732l8.131-32.535zm116.703 32.535h-89.578l4.543-18.171h80.492l4.543 18.171zM42.221 110.096h427.557c8.005 0 15.177 3.614 19.985 9.291l-52.05 156.149a34.695 34.695 0 0 1-32.957 23.754H289.67v-17.637c0-9.136-7.432-16.568-16.568-16.568h-34.205c-9.136 0-16.568 7.432-16.568 16.568v17.637H107.243a34.696 34.696 0 0 1-32.957-23.753l-52.05-156.15c4.808-5.677 11.98-9.291 19.985-9.291zm196.142 206.297v-34.739c0-.295.239-.534.534-.534h34.205c.295 0 .534.239.534.534v34.739h-35.273zm35.274 16.033v17.637a.534.534 0 0 1-.534.534h-34.205a.534.534 0 0 1-.534-.534v-17.637h35.273zm222.33 111.699c0 14.44-11.748 26.188-26.188 26.188H42.221c-14.44 0-26.188-11.748-26.188-26.188V151.481l43.042 129.126a50.71 50.71 0 0 0 48.168 34.717H222.33v34.739c0 9.136 7.432 16.568 16.568 16.568h34.205c9.136 0 16.568-7.432 16.568-16.568v-34.739h115.087a50.709 50.709 0 0 0 48.168-34.717l43.042-129.126v292.644z"/></svg>