<svg xmlns="http://www.w3.org/2000/svg" width="456.793" height="456.793" viewBox="0 0 456.793 456.793"><g fill="#666"><path d="M448.947 218.474c-.924-1.168-23.057-28.933-61-56.81-50.707-37.253-105.88-56.944-159.55-56.944-53.674 0-108.846 19.69-159.552 56.944-37.944 27.876-60.077 55.642-61 56.81L0 228.396l7.845 9.923c.923 1.167 23.056 28.933 61 56.81 50.707 37.252 105.878 56.943 159.55 56.943 53.673 0 108.845-19.69 159.552-56.943 37.943-27.877 60.076-55.643 61-56.81l7.846-9.924-7.846-9.922zm-80.674 51.4c-31.354 22.9-81.072 50.2-139.877 50.2s-108.524-27.3-139.877-50.2c-21.517-15.715-37.642-31.61-46.835-41.478 9.197-9.872 25.32-25.764 46.833-41.478 31.354-22.9 81.072-50.2 139.877-50.2 58.804 0 108.525 27.3 139.876 50.2 21.517 15.715 37.642 31.61 46.835 41.477-9.195 9.873-25.32 25.766-46.832 41.48z"/><path d="M228.396 160.728c-16.416 0-31.465 5.85-43.183 15.572 9.273 2.715 16.05 11.28 16.05 21.43 0 12.335-10 22.334-22.334 22.334-6.483 0-12.317-2.764-16.397-7.174a67.845 67.845 0 0 0-1.807 15.507c0 37.373 30.297 67.67 67.67 67.67 37.372 0 67.668-30.297 67.668-67.67s-30.294-67.67-67.668-67.67z"/></g></svg>