<svg xmlns="http://www.w3.org/2000/svg" viewBox="0 0 137.144 137.144"><path fill="#673044" d="M80.144 27.43c-7.644 0-11.91 1.808-15.804 5.428-3.894 3.618-2.625 9.81-2.625 15.143v13.716H48V75.43h13.716v34.286H75.43V75.43h10.286l3.43-13.715H75.428v-6.858c0-2.285.078-1.404 0-6.857-.076-4.893 2.962-6.857 5.678-6.857h5.464l2.572-12.952v-.333c-.93-.126-1.286-.11-3.215-.24a89.41 89.41 0 0 0-5.786-.188zM109.714 0H27.43C12.28 0 0 12.28 0 27.43v82.286c0 15.148 12.28 27.43 27.43 27.43h82.285c15.148 0 27.43-12.28 27.43-27.43V27.43c0-15.15-12.28-27.43-27.43-27.43zm13.716 102.858c0 11.36-9.21 20.572-20.57 20.572H34.285c-11.36 0-20.572-9.21-20.572-20.572V34.286c0-11.362 9.21-20.572 20.572-20.572h68.572c11.36 0 20.57 9.21 20.57 20.572v68.572z"/></svg>