<svg viewBox="0 -28 512.001 512" xmlns="http://www.w3.org/2000/svg"><path fill="#444" d="M256 455.516c-7.29 0-14.316-2.64-19.793-7.438-20.684-18.086-40.625-35.082-58.22-50.074l-.09-.078c-51.58-43.957-96.124-81.918-127.116-119.313C16.138 236.81 0 197.173 0 153.87 0 111.8 14.426 72.99 40.617 44.58 67.12 15.832 103.487 0 143.03 0c29.556 0 56.622 9.344 80.447 27.77 12.023 9.3 22.92 20.683 32.523 33.96 9.605-13.277 20.5-24.66 32.527-33.96C312.352 9.344 339.417 0 368.973 0c39.54 0 75.91 15.832 102.414 44.578C497.577 72.988 512 111.8 512 153.87c0 43.302-16.133 82.94-50.777 124.74-30.993 37.398-75.532 75.355-127.106 119.308-17.625 15.016-37.597 32.04-58.328 50.168a30.046 30.046 0 0 1-19.79 7.43zM143.03 29.992c-31.065 0-59.604 12.4-80.366 34.914-21.07 22.856-32.676 54.45-32.676 88.965 0 36.42 13.535 68.99 43.883 105.607 29.333 35.394 72.962 72.574 123.478 115.625l.093.078c17.662 15.05 37.68 32.113 58.517 50.332 20.96-18.254 41.012-35.344 58.707-50.418 50.512-43.05 94.137-80.223 123.47-115.617 30.343-36.618 43.878-69.188 43.878-105.606 0-34.515-11.606-66.108-32.676-88.964-20.758-22.515-49.3-34.914-80.363-34.914-22.758 0-43.653 7.235-62.102 21.5-16.44 12.72-27.893 28.797-34.608 40.047-3.453 5.784-9.532 9.237-16.262 9.237s-12.81-3.453-16.262-9.238c-6.71-11.25-18.164-27.33-34.61-40.048-18.448-14.265-39.343-21.5-62.097-21.5zm0 0"/></svg>