<svg xmlns="http://www.w3.org/2000/svg" viewBox="0 0 230.955 230.955"><g fill="#b9313a"><path d="M148.56 131.668c-2.27 0-4.408.885-6.015 2.492a8.447 8.447 0 0 0-2.492 6.016c0 2.27.885 4.408 2.49 6.015a8.455 8.455 0 0 0 6.018 2.494c2.272 0 4.41-.886 6.016-2.492a8.454 8.454 0 0 0 2.493-6.016c0-2.272-.887-4.41-2.493-6.016a8.447 8.447 0 0 0-6.016-2.492zM88.412 96.796c3.317-3.316 3.317-8.714 0-12.032a8.45 8.45 0 0 0-6.015-2.49 8.45 8.45 0 0 0-6.016 2.49 8.45 8.45 0 0 0-2.49 6.017 8.45 8.45 0 0 0 2.49 6.017 8.452 8.452 0 0 0 6.017 2.492c2.273 0 4.41-.886 6.015-2.494z"/><path d="M228.685 96.788l-17.194-24.48-6.232-29.842c-.924-4.422-4.16-8-8.468-9.362l-28.914-9.144-22.483-20.357a12.5 12.5 0 0 0-12.332-2.597l-28.784 9.568-30.158-3.232a12.484 12.484 0 0 0-11.492 5.147L44.958 37.143l-26.302 15.11a12.503 12.503 0 0 0-6.274 10.93l.225 30.504L.964 121.59a12.5 12.5 0 0 0 1.33 12.03l17.23 24.365 6.228 29.82c.924 4.423 4.16 8.002 8.468 9.363l28.78 9.1 22.087 20.897a12.5 12.5 0 0 0 12.725 2.717l29.028-10.173 30.052 3.22c4.49.482 8.87-1.488 11.493-5.15l17.666-24.654 26.303-15.107a12.496 12.496 0 0 0 6.274-10.932l-.225-30.506 11.59-27.8a12.5 12.5 0 0 0-1.307-11.994zM58.89 90.78c0-6.278 2.445-12.182 6.885-16.622a23.355 23.355 0 0 1 16.623-6.885 23.355 23.355 0 0 1 16.622 6.885c9.165 9.167 9.165 24.08 0 33.246a23.36 23.36 0 0 1-16.622 6.885 23.355 23.355 0 0 1-16.623-6.886A23.353 23.353 0 0 1 58.89 90.78zm29.048 62.96a7.48 7.48 0 0 1-5.304 2.196 7.5 7.5 0 0 1-5.304-12.803l65.917-65.917a7.5 7.5 0 0 1 10.607 10.607L87.938 153.74zm77.245 3.057a23.352 23.352 0 0 1-16.62 6.886 23.35 23.35 0 0 1-16.624-6.887 23.353 23.353 0 0 1-6.886-16.62c0-6.28 2.445-12.185 6.886-16.624a23.355 23.355 0 0 1 16.622-6.885c6.28 0 12.183 2.445 16.622 6.886a23.353 23.353 0 0 1 6.886 16.622c0 6.28-2.447 12.183-6.887 16.622z"/></g></svg>