<svg xmlns="http://www.w3.org/2000/svg" viewBox="0 0 612.002 612.002" width="512" height="512"><g fill="#b9313a"><path d="M437.51 174.502c5.124 5.123 13.435 5.123 18.55 0L608.16 22.4c5.123-5.124 5.123-13.428 0-18.558-5.116-5.123-13.427-5.123-18.55 0L437.51 155.945c-5.128 5.123-5.128 13.434 0 18.557z"/><path d="M568.952 289.544l-16.68-183.418-45.793 45.792c2.662 17.002-2.526 35.002-15.626 48.1-21.77 21.772-57.075 21.78-78.846 0-21.77-21.77-21.77-57.08 0-78.85 13.1-13.1 31.086-18.282 48.082-15.626l45.805-45.805L322.47 43.055a24.45 24.45 0 0 0-19.482 7.058L7.152 345.95c-9.53 9.537-9.538 24.99 0 34.522l65.805 65.812 32.47-32.47 92.765 92.765-32.463 32.462 65.804 65.805c9.538 9.538 24.985 9.538 34.516 0L561.906 309.01a24.51 24.51 0 0 0 7.046-19.466z"/></g></svg>