<svg id="_x31_" xmlns="http://www.w3.org/2000/svg" viewBox="0 0 800 500"><style>.st0{fill-rule:evenodd;clip-rule:evenodd;fill:#640321}</style><path class="st0" d="M397.8 115.2c-2.2 0-4.4.3-5.9.7-1.5-13.4-7.7-26.2-18.3-34.2 7.5-9.4 16-17.6 24.3-23.2 8.3 5.7 16.7 13.9 24.3 23.2-10.7 8-16.9 20.8-18.3 34.2-1.7-.4-3.9-.7-6.1-.7zm0 107.1c-2.2 0-4.4-.3-5.9-.7-1.5 13.4-7.7 26.2-18.3 34.2 7.5 9.4 16 17.6 24.3 23.2 8.3-5.7 16.7-13.9 24.3-23.2-10.7-8-16.9-20.8-18.3-34.2-1.7.4-3.9.7-6.1.7zm0 65.6l.4-.2 3.3-2.1c9.3-6.3 18.7-15.4 26.9-25.8 41.3 22.4 84-20.1 61.4-61.2 10.1-7.9 19-17.5 25.2-26.9l2-3h-9c-5.4 8-13 16.1-21.6 23 0 0 0 .1-.1.1-2.1 1.6-4.3 3.1-6.4 4.7-.4.3-.7.5-1.1.7l-.2.2c-9.7 6.4-20.1 11.1-30.2 12.3-.3 0-.7.1-1 .1-3.6-18.3-14.5-19.5-26.8-19.4-1 12.1 1.2 23.3 19.5 26.8 0 .4-.1.7-.1 1-1.2 10.5-6.4 21.5-13.4 31.5-9.7-7.3-16.4-19.1-16.9-31.4-.1-1.3 0-2.6.1-3.9h-.2v-.1c-3.9 2.1-7.8 3.1-11.7 3.1-3.9 0-7.8-1-11.7-3.1v.1h-.2c.1 1.3.1 2.6.1 3.9-.5 12.2-7.2 24.1-16.9 31.4-7-10-12.2-21-13.4-31.5 0-.3-.1-.7-.1-1 18.3-3.6 20.6-14.7 19.5-26.8-12.4-.1-23.3 1.1-26.8 19.4-.3 0-.7-.1-1-.1-10-1.2-20.5-5.8-30.2-12.3l-.2-.2c-.4-.2-.7-.5-1.1-.7-2.1-1.6-4.3-3.1-6.4-4.7l-.1-.1c-8.6-6.9-16.2-15.1-21.6-23 5.4-8 13-16.1 21.6-23l.1-.1c2.1-1.6 4.3-3.1 6.4-4.7.4-.3.7-.5 1.1-.7l.2-.2c9.7-6.4 20.1-11.1 30.2-12.3.3 0 .7-.1 1-.1 3.6 18.3 14.5 19.5 26.8 19.4 1-12.1-1.2-23.3-19.5-26.8 0-.4.1-.7.1-1 1.2-10.5 6.4-21.5 13.4-31.5 9.7 7.3 16.4 19.1 16.9 31.4.1 1.3 0 2.6-.1 3.9h.2v.1c3.9-2.1 7.8-3.1 11.7-3.1 3.9 0 7.8 1 11.7 3.1v-.1h.2c-.1-1.3-.1-2.6-.1-3.9.5-12.2 7.2-24.1 16.9-31.4 7 10 12.2 21 13.4 31.5 0 .3.1.7.1 1-18.3 3.6-20.6 14.7-19.5 26.8 12.4.1 23.3-1.1 26.8-19.4.3 0 .7.1 1 .1 10 1.2 20.5 5.8 30.2 12.3l.2.2c.4.2.7.5 1.1.7 2.1 1.6 4.3 3.1 6.4 4.7l.1.1c8.6 6.9 16.2 15.1 21.6 23h8.9l-2-3c-6.2-9.4-15-18.9-25.2-26.9 22.6-41.1-20.2-83.6-61.4-61.2-8.2-10.4-17.6-19.5-26.9-25.8l-3.3-2.1-.4-.2-.4.2-3.3 2.1c-9.3 6.3-18.7 15.4-26.9 25.8-41.3-22.4-84 20.1-61.4 61.2-10.1 7.9-19 17.5-25.2 26.9l-2 3 2 3c6.2 9.4 15 18.9 25.2 26.9-22.6 41.1 20.2 83.6 61.4 61.2 8.2 10.4 17.6 19.5 26.9 25.8l3.3 2.1.5.2zm42.1-78.2c-8.3-1.1-15-6.6-14.6-15.1 9.2 0 14.1 7 14.6 15.1zm43.8-6.7c17.8 33.2-16.5 67.4-50.9 50.7 7.6-10.9 13.1-22.9 14.4-34.5.1-.6.1-1.2.2-1.8.6 0 1.2-.1 1.8-.2 11.6-1.4 23.6-6.8 34.5-14.2zm-128 6.7c.5-8.1 5.4-15.1 14.5-15.1.5 8.5-6.2 14-14.5 15.1zm-43.8-6.7c10.9 7.4 22.9 12.8 34.4 14.2.6.1 1.2.1 1.8.2 0 .6.1 1.2.2 1.8 1.4 11.6 6.9 23.6 14.4 34.5-34.3 16.7-68.7-17.5-50.8-50.7zm128-75.2c-.5 8.1-5.4 15.1-14.6 15.1-.4-8.5 6.3-14 14.6-15.1zm43.8 6.7c-10.9-7.4-22.9-12.8-34.4-14.2-.6-.1-1.2-.1-1.8-.2 0-.6-.1-1.2-.2-1.8-1.4-11.6-6.9-23.6-14.4-34.5 34.3-16.7 68.6 17.5 50.8 50.7zm-128-6.7c8.3 1.1 15 6.6 14.5 15.1-9.1 0-14-7-14.5-15.1zm-43.8 6.7c-17.8-33.2 16.5-67.4 50.9-50.7-7.6 10.9-13.1 22.9-14.4 34.5-.1.6-.1 1.2-.2 1.8-.6 0-1.2.1-1.8.2-11.7 1.4-23.6 6.7-34.5 14.2z"/><path class="st0" d="M350.1 153.6l-1.5-.4-.1-.1c-.8-.7-.6-1.9.1-2.6l.2-.2h.3c1.9.1 3.9.2 5.8.2s3.8-.1 5.7-.2h.2c1.2.3 1.4 2.3.3 2.9l-.1.1h-.1c-4.8.7-6.1 2-9.4 5.3-2.1 2.1-4.2 4.3-6.3 6.5-.1.1-.3.3-.3.4 0 .1.2.3.2.4 4.1 5.5 8.4 10.9 12.8 16.1.9 1.1 1.9 1.6 3.4 1.7l1.4.2.2.1c.8.6.7 2.4-.3 2.8l-.1.1h-.2c-2.2-.1-4.4-.2-6.6-.2-2.4 0-4.8 0-7.1.2h-.1l-.1-.1c-1.1-.4-1.2-2.3-.2-2.9l.1-.1 1.6-.2c0-.1-.1-.2-.2-.2-1.7-2.1-3.3-4.3-4.9-6.5-1.6-2.1-3.5-4.8-5.3-6.7-.1-.1-.5-.6-.7-.6-.7 0-.5 1.5-.5 2.1v6.7c0 .8-.1 4.3.7 4.9.3.3 1.2.3 1.6.4l1.5.2.2.1c.8.6.7 2.3-.2 2.8l-.2.1h-.2c-2.3-.1-4.7-.2-7-.2-2.2 0-4.4 0-6.6.2h-.2l-.2-.1c-.9-.5-1-2.2-.2-2.8l.1-.1.9-.1c.4-.1 1.3-.2 1.6-.4.8-.6.7-4.1.7-4.9v-19.6c0-.8.1-4.3-.7-4.9-.3-.3-1.2-.4-1.6-.4l-1.2-.2-.2-.2c-.7-.7-.6-2.2.3-2.7l.2-.1h.2c2.3.1 4.6.2 6.8.2s4.4 0 6.6-.2h.2l.2.1c.9.5 1 2.2.2 2.8l-.1.1-1 .2c-.4.1-1.3.2-1.6.5-.8.6-.7 4-.7 4.9v5.8c0 .3 0 1.5.1 1.6.8 0 2.8-2.3 3.4-2.9l5.3-5.8c.9-.9 2-2.1 2.8-3.2-.3-.3 0-.6.1-.9zm85.2 5.4c0-.8.1-4.3-.5-4.9-.3-.3-1-.3-1.3-.3l-1.3-.1-.2-.1c-.8-.6-.8-2.2.1-2.7l.2-.1h.2c4.3-.4 8.7-.5 13.1-.5s8.4.3 12.5 1.8c7.1 2.6 11.1 8.9 11.1 16.4 0 6.8-3.6 12.7-9.7 15.8-4 2.1-8.8 2.6-13.2 2.6-2.5 0-5-.3-7.5-.3-2.2 0-4.4.1-6.6.2h-.2l-.2-.1c-.9-.5-1-2-.3-2.7l.2-.2 1.4-.2c.4-.1 1.3-.1 1.6-.4.8-.6.7-4.1.7-4.9V159h-.1zm7.5 17.2c0 4.4 0 7.1 5.1 7.1 9 0 12.7-6.5 12.7-14.8 0-9-4.7-14.7-13.9-14.7-.7 0-3.1.1-3.7.5-.2.4-.2 2.9-.2 3.4v18.5zm-58.5 9.1c-1.4-1.6-1.8-6.3-1.8-8.4v-.1l.1-.1c.5-.8 1.8-.9 2.6-.3l.1.1v.1c1.3 3.6 4.3 8 8.8 8 3.3 0 5.9-1.8 5.9-5.1 0-3.5-2.3-5.6-5.3-7.2l-2.4-1.3c-4.2-2.3-8-5.7-8-10.7 0-6.9 6-10.3 12.6-10.3 2.7 0 5 .6 7.6 1.1l.3.1.1.2c.8 1.6 1.2 5.5 1.2 7.4v.1l-.1.1c-.5.8-1.9.9-2.6.3l-.1-.1-.1-.2c-1-3.3-3-5.9-6.8-5.9-3.2 0-5.6 1.8-5.6 5 0 2.8 2.6 4.8 4.9 6l3.4 1.8c4.4 2.3 7.8 5.9 7.8 11 0 7.3-6.3 10.9-13.3 10.9-3.3 0-6.4-.7-9.3-2.3v-.2zM131.2 445.4c-7.2 0-14.3.3-21.4.5h-.4l-.4-.2c-2.2-1.3-2.6-5.5-.8-7.2l.4-.3 4.4-.6c6-.8 5.4-1.7 3.4-7.2l-8.3-23.2c-1.4-4-1.6-3.6-5.8-3.6H78.7c-4 0-3.3-.1-4.6 3.6l-7.2 20.5c-.4 1.1-2.7 7.2-1.8 8.3.5.7 3.5 1.1 4.4 1.2l5.6.9.3.3c1.8 1.8 1.7 6-.7 7.2l-.4.2h-.4c-6.2-.4-12.4-.4-18.6-.5-5.8 0-11.6.2-17.3.5h-.5l-.4-.3c-2.2-1.5-2-5.1-.5-7l.4-.4 5.8-.9c5.1-.8 6.4-2.5 8.6-7 3.2-6.7 5.7-13.9 8.6-20.7 3.5-8.3 28.2-64.2 27.3-69.4l-.3-1.4 1.4-.3c5.2-1 11.4-8.2 12.6-8.2 1.7 0 3.1.6 4.1 1.9l.2.2.1.2c11.3 30.4 22 61.3 33.3 91.8 3.3 9 3.1 11.3 12.8 13.2l3 .6.3.3c1.9 1.6 2.3 5.7.1 7.2l-.4.3h-.5c-7.6-.4-15.2-.5-22.8-.5zM280 341.2c-2.8 5.7-2.3 26.1-2.3 33V392c0 13.8-1.9 29.8-12 40.4-9.2 9.6-22.5 13.3-35.6 13.3-13.3 0-27.3-2.1-37.3-11.3-10.1-9.4-12.1-24.7-12.1-37.5v-40.8c0-3.3.4-14.3-2.6-16.6-1.4-1.1-4.3-1.5-6-1.7l-3.5-.6-.3-.3c-1.8-1.8-1.7-5.9.7-7.1l.3-.2h.4c7.5.4 15.1.5 22.6.5 7.8 0 15.7-.2 23.5-.5h.4l.3.2c2.5 1.2 2.6 5.3.7 7.1l-.2.1-4.4.6c-1.7.2-4.5.5-5.9 1.6-3.1 2.3-2.7 13.5-2.7 16.8v36.6c0 20.2 5.4 41.9 30.4 41.9s31.1-20.7 31.1-41.4v-18.8c0-6.7.2-27.6-3.1-32.9-1.6-2.6-4.9-3.3-7.8-3.8l-3.9-.6-.3-.2c-2.4-1.8-2.3-6.4.8-7.3l.2-.1h.3c6.5.4 13 .5 19.5.5 6.2 0 12.4-.2 18.6-.5h.5l.4.2c2.3 1.4 2.6 5.3.5 7.1l-.3.2-4.3.9c-2.1.5-5.6 1.1-6.6 3.4zm112.9 48.5c.1.3.3.7.5 1 5.8 9.4 11.5 19 17.7 28.2 3.6 5.3 8.1 11.6 13.1 15.7 3 2.4 7.4 4.6 11.3 5h.4l.4.3c1.5 1.1 1.6 3.8.7 5.3l-.3.5-.6.1c-3.8.9-8.1 1.1-12 1.1-18.8 0-28.1-8.4-38-23.2-5.1-7.5-9.1-15.6-13.9-23.2-2.9-4.6-4.2-5.1-9.7-5.1-.5 0-3.4 0-3.8.3-.2.3-.1 1.7-.1 2.1v21.8c0 3.3-.4 14.4 2.7 16.7 1.4 1 4.2 1.3 5.9 1.5l4.4.6.4.3c1.8 1.8 1.7 6-.7 7.2l-.3.2h-.4c-7.8-.3-15.6-.5-23.3-.5-7.9 0-15.8.2-23.7.5h-.4l-.3-.2c-2.6-1.2-2.9-5.6-.6-7.4l.3-.2 4.3-.6c1.7-.2 4.5-.5 5.9-1.5 3.1-2.3 2.7-13.4 2.7-16.7V357c0-3 .5-14.1-2-16.4-1.2-1.1-3.6-1.3-5.2-1.5l-5.1-.6-.4-.4c-1.8-1.8-1.9-5.6.4-7l.3-.2h.3c13.4-1.2 27.2-1.5 40.6-1.5 10.6 0 24.6 1 34.1 6 10.5 5.5 16.3 14.5 16.3 26.2-.1 13.8-9.5 23.2-21.9 28.1zm174.2-48.5c-2.8 5.7-2.3 26.1-2.3 33V392c0 13.8-1.8 29.8-12 40.4-9.2 9.6-22.5 13.3-35.6 13.3-13.3 0-27.3-2.1-37.3-11.3-10.1-9.4-12.1-24.7-12.1-37.5v-40.8c0-3.3.4-14.3-2.6-16.6-1.4-1.1-4.3-1.5-6-1.7l-3.5-.6-.3-.3c-1.8-1.8-1.7-5.9.7-7.1l.4-.2h.4c7.5.4 15.1.5 22.6.5 7.8 0 15.7-.2 23.5-.5h.4l.3.2c2.5 1.2 2.6 5.3.7 7.1l-.4.3-4.4.6c-1.7.2-4.5.5-5.9 1.6-3.1 2.3-2.7 13.5-2.7 16.8v36.6c0 20.2 5.4 41.9 30.4 41.9s31.1-20.7 31.1-41.4v-18.8c0-6.7.2-27.6-3.1-32.9-1.6-2.6-4.9-3.3-7.8-3.8l-3.9-.6-.3-.2c-2.4-1.8-2.3-6.4.8-7.3l.3-.1h.3c6.5.4 13 .5 19.5.5 6.2 0 12.4-.2 18.6-.5h.5l.4.2c2.3 1.4 2.6 5.3.5 7.1l-.3.2-4.3.9c-2.1.3-5.6.9-6.6 3.2zm155 19.2c-2.7 5.5-5.4 10.9-8.1 16.4l-15.1 30c-6.2 12.4-12.8 25.9-17.9 38.8l-.1.3-.2.2c-1.4 1.3-4.8 1.1-6.4.2l-.5-.3-.2-.5c-3.7-11.2-9.4-23.6-14.5-34.3l-15.7-32.8c-2.7-5.8-5.4-11.8-8-17.7-.3 7.7-.5 15.3-.8 23-.5 13.1-.7 26.4-.7 39.5 0 2.7-.3 9.7 1.6 11.8 1.1 1.2 3.4 1.7 4.9 2l6.2 1.1.3.3c1.9 1.6 2 6.1-.5 7.3l-.4.2h-.4c-6.1-.3-12.2-.5-18.4-.5-6.3 0-12.5.2-18.8.5h-.4l-.4-.2c-2.3-1.3-2.8-5.7-.8-7.3l.3-.3 3.4-.4c8.8-1 8.7-4.9 9.6-12.7 1.5-13 1.9-26.4 2.6-39.5.6-12 1.8-24.1 1.8-36.1 0-6.4-1.4-10-8.3-11.2l-6.5-1.1-.3-.4c-1.7-1.9-1.4-6.4 1.4-7.2l.3-.1h.3c5.5.4 10.9.5 16.5.5 6.3 0 12.5 0 18.7-.5l1.5-.1.1 1.5c.7 10 5.2 18.9 9.5 27.8l19.4 39.4c2.1 4.3 4.5 8.8 6.9 13 2.8-5.1 5.3-10.3 7.9-15.4l16.5-32.7c5.3-10.5 11.1-21 14.2-32.3l.3-1.2 1.2.1c4.7.3 9.6.5 14.3.5 6.1 0 12.3-.1 18.4-.5h.3l.3.1c3.1 1.1 3.6 5.9.8 7.5l-.3.1-6.1.9c-7.8 1.1-8.3 4.4-8.3 11.5 0 25.2.4 50.5 1.6 75.7.1 2.6.3 9 2.8 10.8 1.1.7 2.8 1 4.1 1.2l5.3.9.1.1c3.1 1.2 2.7 6.5-.4 7.6l-.3.1h-.3c-7.1-.3-14.3-.5-21.4-.5-7.8 0-15.7.2-23.5.5h-.4l-.3-.2c-2.6-1.2-3.1-5.9-.5-7.5l.2-.1 5-.9c1.4-.2 3.8-.6 4.8-1.6 1.8-1.7 1.5-8.7 1.5-11v-53.9c.3-3.5.3-6.9.3-10.4zm-618.9 32.4c0-.5-.4-1.9-.6-2.3L95.3 370c-.5-1.6-2.4-7.6-3.7-11-1.5 3.4-3 8.3-4.1 11l-7.4 20c-.2.5-.8 2.2-.9 3 .6.1 1.9.1 2.3.1h18.3c.6 0 2.9 0 3.4-.3zm262.3-6.9c16.2 0 23.7-7.3 23.7-23 0-13.1-8.7-23.8-22.8-23.8-7.8 0-7.9-.5-7.9 6.9v35.5c0 .7-.1 3.2.4 3.7.7.8 5.7.7 6.6.7z"/></svg>