<svg id="Слой_1" data-name="Слой 1" xmlns="http://www.w3.org/2000/svg" viewBox="0 0 566.93 197.07"><defs><style>.cls-1{fill:#631529;fill-rule:evenodd}</style></defs><title>aurum_logo_rus</title><path class="cls-1" d="M77.24 73.3a11.3 11.3 0 0 0-3.2.4c-.78-7.22-4.14-14.14-9.89-18.46a63.79 63.79 0 0 1 13.09-12.53 64 64 0 0 1 13.08 12.53c-5.74 4.32-9.1 11.24-9.89 18.45a11.2 11.2 0 0 0-3.19-.39zM51.53 94l-.83-.24-.07-.06a1 1 0 0 1 0-1.39l.12-.13H51c1 0 2.08.08 3.12.08s2 0 3.08-.08h.11a.88.88 0 0 1 .16 1.56h-.12c-2.57.36-3.28 1.06-5.08 2.84-1.18 1.21-2.27 2.42-3.45 3.55 0 0-.16.16-.17.21s.1.17.12.21c2.21 3 4.52 5.87 6.89 8.69a2.59 2.59 0 0 0 1.82.94l.77.09.08.06a1 1 0 0 1-.14 1.52H58c-1.18-.07-2.37-.08-3.56-.08s-2.57 0-3.85.08h-.16a.89.89 0 0 1-.11-1.54h.06l.84-.12-.08-.12c-.92-1.15-1.78-2.34-2.67-3.51a41.82 41.82 0 0 0-2.86-3.6c-.07-.07-.29-.31-.39-.31-.37 0-.25.84-.25 1.11v3.6c0 .46 0 2.34.37 2.66a2.22 2.22 0 0 0 .85.21l.81.09.08.06a1 1 0 0 1-.11 1.5h-.2c-1.26-.05-2.52-.08-3.79-.08s-2.37 0-3.54.08h-.2a1 1 0 0 1-.11-1.5h.08l.49-.08a2.28 2.28 0 0 0 .86-.22c.42-.33.37-2.2.37-2.67V96.76c0-.45.05-2.31-.36-2.64a2.6 2.6 0 0 0-.88-.23l-.66-.1-.03-.09a1 1 0 0 1 .16-1.46h.2c1.22.06 2.45.08 3.68.08s2.38 0 3.57-.08h.2a1 1 0 0 1 .1 1.5l-.07.05-.56.1a2.68 2.68 0 0 0-.89.25c-.41.33-.36 2.17-.36 2.62v3.15a2.77 2.77 0 0 0 .09.88c.44 0 1.52-1.23 1.8-1.55l2.87-3.12a17.62 17.62 0 0 0 1.49-1.73c.05-.06.18-.24.27-.38m46 2.92c0-.43.07-2.34-.28-2.65a1.53 1.53 0 0 0-.71-.19l-.7-.06-.15-.03a1 1 0 0 1 .05-1.46l.08-.05h.09c2.35-.19 4.7-.25 7-.25a18.63 18.63 0 0 1 6.75 1 9.07 9.07 0 0 1 6 8.85 9.39 9.39 0 0 1-5.24 8.51 15.69 15.69 0 0 1-7.13 1.41c-1.37 0-2.72-.17-4.07-.17-1.18 0-2.36 0-3.54.08h-.2a1 1 0 0 1-.15-1.45l.09-.1.76-.1a2.23 2.23 0 0 0 .85-.22c.42-.32.37-2.19.37-2.65zm4 9.28c0 2.38 0 3.83 2.77 3.83 4.84 0 6.83-3.51 6.83-8 0-4.87-2.55-7.94-7.51-7.94a6.43 6.43 0 0 0-2 .28 9.1 9.1 0 0 0-.1 1.82zM70 111.07c-.77-.87-1-3.4-1-4.55V106.37a1 1 0 0 1 1.38-.19l.06.06v.07c.71 2 2.32 4.33 4.72 4.33 1.79 0 3.2-.94 3.2-2.77s-1.22-3-2.85-3.89l-1.26-.69C72 102.05 70 100.22 70 97.5c0-3.74 3.24-5.54 6.8-5.54a21.69 21.69 0 0 1 4.1.6h.14l.07.13a11.86 11.86 0 0 1 .65 4V96.84a1 1 0 0 1-1.4.17l-.13-.01v-.09c-.53-1.77-1.62-3.19-3.69-3.19-1.75 0-3 .94-3 2.71 0 1.49 1.41 2.6 2.65 3.23l1.82 1c2.37 1.22 4.21 3.16 4.21 5.9 0 4-3.38 5.89-7.15 5.89a9.82 9.82 0 0 1-5-1.24zm103.48 32.39c.48 0 .51.44.54.76.28 3.55 3.67 8.35 10.07 8.35 5.71 0 10-4 10-9.32 0-4.94-3.36-9.43-9.9-9.43-5.94 0-9.81 3.82-9.93 7.61 0 .38-.11.81-.73.81h-1.63c-1.44 0-1.53-.05-1.53-.81v-3.28c0-2.87.26-2.9 1.59-3.12l.48-.07a.57.57 0 0 0-.06-.79c-1.1.05-2.38.08-3.61.08s-2.58 0-3.83-.08a.57.57 0 0 0-.05.79l.62.07c1.33.17 1.58.25 1.58 3.12v10.08c0 2.87-.25 3-1.58 3.14l-.4.06c-.19.19-.17.68.06.78 1.08-.05 2.35-.08 3.6-.08s2.51 0 4 .08c.23-.1.26-.59.06-.78l-.85-.11c-1.33-.16-1.59-.22-1.59-3.09v-4c0-.73.09-.79 1.53-.79zm4.38-.81c0-5.77 3.09-7.75 5.91-7.75 4.5 0 6.43 4.74 6.43 8.83 0 5.45-2.61 7.75-5.83 7.75-4.84 0-6.51-5.09-6.51-8.83m21.9-4.34v9.92c0 2.87-.26 3-1.59 3.12l-.62.08c-.2.19-.17.68.06.78 1.24-.05 2.57-.08 3.81-.08 1.08 0 2.27.08 3.51.08 3.23 0 5.09-.46 6.42-1.51a4.38 4.38 0 0 0 1.73-3.61c0-3.06-2.4-4.39-4.56-4.71-.17 0-.22-.11-.22-.16s.05-.14.17-.17c2-.62 3.19-1.84 3.19-3.44a3.67 3.67 0 0 0-2-3.52 12 12 0 0 0-5.54-.92c-3.11 0-5.17.14-6.45.24a.53.53 0 0 0 0 .76l.74.08c1.33.14 1.36.46 1.36 3.06m3.28 9.35v-3.9c0-.54.06-.7 1.3-.7 3.14 0 5.12 1.65 5.12 4.44a3.46 3.46 0 0 1-3.68 3.63c-2.46 0-2.74-1-2.74-3.47m0-6.36v-4.91c0-1.08.08-1.14 1.5-1.14 1.75 0 3.59.95 3.59 3.34s-1.28 3.41-3.94 3.41c-1.13 0-1.21 0-1.21-.73m15.9-3.15v10.08c0 2.87-.26 3-1.59 3.09l-1.05.11c-.19.19-.17.68.06.78 1.27-.05 3-.08 4.24-.08h3.23c3.31 0 5.74 0 7 .08a16.64 16.64 0 0 0 1.19-3.92.69.69 0 0 0-.91-.17c-1 2.2-1.61 3-5.2 2.93-2.38 0-2.85-.22-3.19-.6s-.49-1.43-.49-2.81v-3.45c0-.67 0-.73.68-.73h1.36c2.46 0 2.94.06 3.14 1.19l.2 1.09a.83.83 0 0 0 .9 0c0-.87-.08-1.81-.08-2.84s.06-2 .08-2.71c-.14-.22-.67-.22-.9 0l-.2.92c-.25 1.17-.68 1.19-3.14 1.19h-1.36c-.65 0-.68 0-.68-.73v-4.58c0-1.54 0-1.6 1.22-1.6h1.9a9.54 9.54 0 0 1 2.26.25c.9.24 1.33.89 1.78 2.46a.77.77 0 0 0 .91-.11c-.17-1.16-.34-3.3-.46-3.76-.36.05-2 .08-3.81.08h-5.41c-1.24 0-2.57 0-3.65-.08a.57.57 0 0 0-.05.79h.45c1.33.16 1.59.27 1.59 3.14m24.52-2.82h3.13c1.45 0 1.53.06 1.53.79v12.11c0 2.87-.25 3-1.58 3.12l-.62.08c-.2.19-.17.68 0 .78 1.25-.05 2.52-.08 3.82-.08s2.52 0 3.76.08c.23-.1.26-.59.06-.78l-.62-.08c-1.33-.16-1.59-.25-1.59-3.12v-10.06c0-2.87.26-2.9 1.59-3.12l.51-.07a.57.57 0 0 0-.06-.79c-1.13.05-2.4.08-3.65.08h-9.19c-1.21 0-1.9-.05-3.11-.05-.17.08-.23.67-.06.79h.45c1.67.19 1.87.13 1.87 4.47 0 4.17-.34 7.31-1.24 8.81a3.53 3.53 0 0 1-3.25 1.73c-1.17 0-1.76.52-1.76 1.27 0 .6.37 1.06 1.36 1.06 2.26 0 3.62-1 4.83-3.17 1.14-2 1.53-5.58 1.53-10.68 0-1.95-.08-3.17 2.24-3.17m41.34 3v9.92c0 2.87-.25 3-1.58 3.14l-.45.06c-.21.19-.18.68 0 .78 1.13-.05 2.4-.08 3.65-.08s2.52 0 4.18.08c.2-.1.23-.59.06-.78l-1-.11c-1.33-.13-1.59-.22-1.59-3.09v-11.84c0-1.06 0-1.14 1.44-1.14a3.92 3.92 0 0 1 4 4.12c0 2.22-2.07 4.12-4.64 4.61a.51.51 0 0 0 .09.67 5.24 5.24 0 0 0 .7 0c2.24 0 7.47-1.24 7.47-5.36a4.57 4.57 0 0 0-2.41-4.07 12.59 12.59 0 0 0-5.9-1.08 56 56 0 0 0-6.26.24c-.22.11-.22.57 0 .76l1 .11c1.19.13 1.22.57 1.22 3m22.88 5.15h6.62c1.45 0 1.53.06 1.53.79v4c0 2.87-.25 3-1.58 3.12l-.63.08c-.2.19-.17.68.06.78 1.24-.05 2.52-.08 3.82-.08s2.52 0 3.76.08c.23-.1.25-.59.06-.78l-.63-.08c-1.33-.16-1.58-.25-1.58-3.12v-10.04c0-2.87.25-2.9 1.58-3.12l.51-.07a.57.57 0 0 0 0-.79c-1.13.05-2.41.08-3.65.08s-2.52 0-3.82-.08a.57.57 0 0 0-.06.79l.63.07c1.33.17 1.58.25 1.58 3.12v3.28c0 .76-.08.81-1.53.81h-6.62c-1.44 0-1.52-.05-1.52-.81v-3.28c0-2.87.25-2.9 1.58-3.12l.48-.07a.57.57 0 0 0-.06-.79c-1.1.05-2.37.08-3.62.08s-2.57 0-3.82-.08a.57.57 0 0 0-.05.79l.62.07c1.33.17 1.58.25 1.58 3.12v10.08c0 2.87-.25 3-1.58 3.14l-.4.06c-.19.19-.17.68.06.78 1.08-.05 2.35-.08 3.59-.08s2.52 0 4 .08c.23-.1.26-.59.06-.78l-.85-.11c-1.33-.16-1.58-.22-1.58-3.09v-4c0-.73.08-.79 1.52-.79m22.12 2h3.76c.79 0 .91 0 1.16.73l1.33 3.68c.43 1.14.29 1.3-.73 1.44l-.63.08a.6.6 0 0 0 .09.78c1 0 2.23-.08 3.45-.08 1.47 0 2.52 0 3.68.08a.55.55 0 0 0 0-.78l-.43-.08c-1.44-.27-1.58-.44-2.23-2.25l-4.07-11.36c-.46-1.21-.82-2.49-1.28-3.7a.55.55 0 0 0-.47-.22 5.07 5.07 0 0 1-2 1.3 4.7 4.7 0 0 1-.54 2l-3.85 9.68c-.59 1.46-1 2.6-1.39 3.31a1.71 1.71 0 0 1-1.55 1.24l-.85.14a.58.58 0 0 0 0 .78c1-.05 1.86-.08 2.8-.08 1.16 0 2.09 0 3 .08.22-.1.25-.59.05-.78l-.82-.14c-1-.16-1.16-.21-.59-1.81l1.16-3.25c.25-.73.23-.73 1-.73m3.39-1.22h-3c-.68 0-.73 0-.45-.79l1.19-3.17c.48-1.27.73-1.95.85-2.14a13.62 13.62 0 0 1 .79 2.14l1.19 3.25c.23.65.12.71-.68.71m50.14-.52c1 1 4.35 5.23 4.35 5.23 2 2.36 3.51 3.36 6.23 3.36a8 8 0 0 0 1.86-.16.48.48 0 0 0-.05-.55 4.51 4.51 0 0 1-2.89-1.32c-2-2.28-4.72-5.5-7-8.32-.31-.41-.25-.57.09-.89 1.1-1.06 2.23-2.17 3.45-3.34 1.95-1.81 2.72-2.46 5.35-2.81a.47.47 0 0 0-.09-.79c-1 0-1.9.08-3.11.08-1.05 0-2 0-3.17-.08a.56.56 0 0 0-.06.79l.88.24c.34.08.31.3-.2.92-.34.43-1.16 1.33-1.52 1.68l-2.89 3c-.93 1-1.58 1.6-2.12 1.6s-.48-.49-.48-1.22v-3c0-2.87.25-2.9 1.58-3.12l.56-.06a.57.57 0 0 0-.05-.79c-1.11.05-2.38.08-3.63.08s-2.57 0-3.73-.08a.57.57 0 0 0-.05.79l.53.07c1.33.19 1.59.25 1.59 3.12v10.08c0 2.87-.26 3-1.59 3.14l-.39.06a.56.56 0 0 0 .05.78c1-.05 2.35-.08 3.59-.08s2.52 0 3.85.08a.55.55 0 0 0 .06-.78l-.71-.08c-1.33-.16-1.58-.25-1.58-3.12v-3.44c0-.78-.06-1.43.65-1.43a1.13 1.13 0 0 1 .68.4m33.46-.51c0-4.94-3.37-9.43-9.9-9.43-5.94 0-10.13 4.09-10.13 9.62 0 4.82 3.68 9.13 10.07 9.13 5.71 0 10-4 10-9.32m-16.18-.6c0-5.77 3.08-7.75 5.91-7.75 4.5 0 6.42 4.74 6.42 8.83 0 5.45-2.6 7.75-5.82 7.75-4.84 0-6.51-5.09-6.51-8.83m43.59 8.78l-.83-.14c-.9-.13-1.21-.3-1.29-2.11-.2-4-.26-8-.26-12 0-1.44.28-1.87 1.53-2.06l.93-.13a.47.47 0 0 0-.08-.79c-.79.05-1.78.08-3 .08-.63 0-1.56 0-2.32-.08a27.52 27.52 0 0 1-2.29 5.17l-2.66 5.21c-.65 1.27-1 2-1.47 2.81-.37-.62-1.11-2-1.33-2.43l-3.11-6.33a11.85 11.85 0 0 1-1.56-4.5c-1.05.08-2 .08-3 .08s-1.8 0-2.65-.08c-.26.08-.29.6-.12.79l1 .16c1.09.19 1.52.73 1.52 2 0 1.66-.17 3.9-.28 5.75-.15 2.82-.23 4.58-.43 6.28s-.39 2.06-1.75 2.22l-.48.06a.56.56 0 0 0 .09.78c1.1-.05 2.12-.08 3-.08s1.93 0 3 .08c.23-.1.23-.62 0-.78l-.94-.16c-1.21-.22-1.24-.63-1.24-2.41 0-2.23.06-4.64.12-6.29.05-1.14.11-3.25.16-4.58h.06c.34.81 1.1 2.52 1.64 3.66l2.52 5.2a59.22 59.22 0 0 1 2.35 5.47.84.84 0 0 0 .73 0c.51-1.27 1.92-4.28 2.89-6.18l2.43-4.76c.54-1.09.93-1.9 1.7-3.39v11.08c0 1.84-.08 2-1.21 2.22l-.77.14c-.28.16-.17.68.06.78 1.24-.05 2.46-.08 3.79-.08 1.13 0 2.24 0 3.45.08.31-.1.34-.67.06-.78m10.57-16.1H462c1.21 0 1.21.06 1.21 1.6v11.3c0 2.87-.25 3-1.58 3.12l-.63.08c-.19.19-.16.68.06.78 1.25-.05 2.52-.08 3.82-.08s2.52 0 3.76.08c.23-.1.26-.59.06-.78l-.63-.08c-1.32-.16-1.58-.25-1.58-3.12v-10.08c0-2.87.26-2.9 1.58-3.12l.52-.07a.58.58 0 0 0-.06-.79c-1.13.05-2.4.08-3.65.08h-13c-1.25 0-2.58 0-3.82-.08a.57.57 0 0 0-.06.79l.62.07c1.33.17 1.59.25 1.59 3.12v10.08c0 2.87-.26 3-1.59 3.14l-.39.06c-.2.19-.17.68.05.78 1.08-.05 2.35-.08 3.6-.08s2.52 0 4 .08c.23-.1.26-.59.06-.78l-.85-.11c-1.33-.16-1.58-.22-1.58-3.09v-11.3c0-1.54 0-1.6 1.21-1.6m22.44 10.17h3.76c.79 0 .9 0 1.15.73l1.34 3.68c.42 1.14.28 1.3-.74 1.44l-.62.08a.6.6 0 0 0 .08.78c1 0 2.24-.08 3.45-.08 1.47 0 2.52 0 3.68.08a.55.55 0 0 0 0-.78l-.42-.08c-1.44-.27-1.58-.44-2.24-2.25l-4.07-11.36c-.45-1.21-.82-2.49-1.27-3.7a.57.57 0 0 0-.48-.22 5 5 0 0 1-2 1.3 4.55 4.55 0 0 1-.54 2l-3.88 9.65c-.59 1.46-1 2.6-1.38 3.31a1.73 1.73 0 0 1-1.56 1.24l-.85.14a.59.59 0 0 0 0 .78c1-.05 1.87-.08 2.8-.08 1.16 0 2.09 0 3 .08.23-.1.25-.59.06-.78l-.82-.14c-1.05-.16-1.16-.21-.6-1.81l1.16-3.25c.26-.73.23-.73 1-.73m3.39-1.22h-2.94c-.68 0-.74 0-.45-.79l1.18-3.17c.48-1.27.74-1.95.85-2.14h.06a16.54 16.54 0 0 1 .79 2.14l1.19 3.25c.22.65.11.71-.68.71m18.07-.82h6.62c1.44 0 1.53.06 1.53.79v4c0 2.87-.25 3-1.58 3.12l-.63.08c-.19.19-.17.68.06.78 1.24-.05 2.52-.08 3.81-.08s2.53 0 3.77.08c.22-.1.25-.59 0-.78l-.62-.08c-1.33-.16-1.58-.25-1.58-3.12v-10.13c0-2.87.25-2.9 1.58-3.12l.51-.07a.57.57 0 0 0 0-.79c-1.13.05-2.41.08-3.66.08s-2.51 0-3.81-.08a.58.58 0 0 0-.06.79l.63.07c1.33.17 1.58.25 1.58 3.12v3.28c0 .76-.09.81-1.53.81h-6.62c-1.44 0-1.52-.05-1.52-.81v-3.28c0-2.87.25-2.9 1.58-3.12l.48-.07a.57.57 0 0 0-.06-.79c-1.1.05-2.37.08-3.62.08s-2.57 0-3.82-.08a.57.57 0 0 0-.05.79l.62.07c1.33.17 1.58.25 1.58 3.12v10.08c0 2.87-.25 3-1.58 3.14l-.4.06c-.19.19-.17.68.06.78 1.08-.05 2.35-.08 3.59-.08s2.52 0 4 .08c.23-.1.26-.59.06-.78l-.85-.11c-1.33-.16-1.58-.22-1.58-3.09v-4c0-.73.08-.79 1.52-.79m31-4v8.73c0 2.87-.25 3-1.58 3.12l-.62.08c-.2.19-.17.68 0 .78 1.25-.05 2.52-.08 3.82-.08s2.52 0 3.76.08c.23-.1.26-.59.06-.78l-.62-.08c-1.33-.16-1.58-.25-1.58-3.12v-10.02c0-2.87.25-2.9 1.58-3.12l.51-.07a.57.57 0 0 0-.06-.79c-1.13.05-2.4.08-3.65.08s-2.52 0-3.82-.08a.57.57 0 0 0 0 .79l.62.07c1.33.17 1.58.25 1.58 3.12l-9.64 8.79v-8.79c0-2.87.25-2.9 1.58-3.12l.48-.07a.57.57 0 0 0 0-.79c-1.1.05-2.38.08-3.62.08s-2.57 0-3.82-.08a.58.58 0 0 0-.06.79l.63.07c1.32.17 1.58.25 1.58 3.12v10.08c0 2.87-.26 3-1.58 3.14l-.4.06c-.2.19-.17.68.06.78 1.07-.05 2.34-.08 3.59-.08s2.52 0 4 .08c.22-.1.25-.59 0-.78l-.85-.11c-1.33-.16-1.58-.22-1.58-3.09zm-257.11 0v8.73c0 2.87-.25 3-1.58 3.12l-.63.08c-.19.19-.17.68.06.78 1.24-.05 2.52-.08 3.82-.08s2.52 0 3.76.08c.23-.1.26-.59.05-.78l-.62-.08c-1.32-.16-1.58-.25-1.58-3.12v-10.02c0-2.87.26-2.9 1.58-3.12l.51-.07a.57.57 0 0 0-.05-.79c-1.13.05-2.41.08-3.65.08s-2.52 0-3.82-.08a.58.58 0 0 0-.06.79l.63.07c1.33.17 1.58.25 1.58 3.12l-9.67 8.79v-8.79c0-2.87.25-2.9 1.58-3.12l.56-.03a.57.57 0 0 0-.06-.79c-1.1.05-2.37.08-3.62.08s-2.57 0-3.82-.08a.57.57 0 0 0-.05.79l.62.07c1.33.17 1.58.25 1.58 3.12v10.08c0 2.87-.25 3-1.58 3.14l-.39.06c-.2.19-.18.68.05.78 1.08-.05 2.35-.08 3.59-.08s2.52 0 4 .08c.23-.1.26-.59.06-.78l-.85-.11c-1.33-.16-1.58-.22-1.58-3.09zm280.72 8.73v-9.92c0-2.6 0-2.92 1.36-3.06l.74-.08a.53.53 0 0 0 0-.76c-1.78-.16-4.19-.24-6.51-.24a12.32 12.32 0 0 0-5.37.92 4.24 4.24 0 0 0-2.49 4c0 2.49 2 3.74 3.39 4.28.17.08.11.29 0 .46-2.26 3.66-3.67 6-5 7a3.57 3.57 0 0 1-2 .84.48.48 0 0 0 0 .55 8.15 8.15 0 0 0 1.87.16c2.71 0 4.18-1.06 5.91-3.58.76-1.13 1.55-2.63 2.23-3.68a1.6 1.6 0 0 1 1.75-.92c.85 0 .88 0 .88.59v3.47c0 2.87-.25 3-1.58 3.12l-.63.08c-.19.19-.16.68.06.78 1.25-.05 2.52-.08 3.76-.08s2.52 0 3.83.08a.52.52 0 0 0 0-.78l-.62-.08c-1.33-.16-1.59-.25-1.59-3.12M550 136.58v5.64c0 .86 0 .92-1.35.92-2.78 0-4-1.3-4-3.88a3.81 3.81 0 0 1 3.9-4c1.47 0 1.5.08 1.5 1.33m-189.7 11.64v-9.92c0-2.6 0-2.92 1.36-3.06l.74-.08a.55.55 0 0 0 0-.76c-1.79-.16-4.19-.24-6.51-.24a12.32 12.32 0 0 0-5.37.92 4.22 4.22 0 0 0-2.49 4c0 2.49 2 3.74 3.39 4.28.17.08.11.29 0 .46-2.26 3.66-3.68 6-5 7a3.6 3.6 0 0 1-2 .84.48.48 0 0 0-.05.55 8.11 8.11 0 0 0 1.86.16c2.72 0 4.19-1.06 5.92-3.58.76-1.13 1.55-2.63 2.23-3.68a1.6 1.6 0 0 1 1.75-.92c.85 0 .88 0 .88.59v3.47c0 2.87-.25 3-1.58 3.12l-.63.08c-.19.19-.16.68.06.78 1.25-.05 2.52-.08 3.76-.08s2.52 0 3.82.08a.51.51 0 0 0 .06-.78l-.62-.08c-1.33-.16-1.59-.25-1.59-3.12m-3.28-11.65v5.64c0 .86 0 .92-1.36.92-2.77 0-4-1.3-4-3.88a3.81 3.81 0 0 1 3.9-4c1.47 0 1.5.08 1.5 1.33M215.82 111.8c-3.86 0-7.7.17-11.56.28H204l-.2-.12a2.76 2.76 0 0 1-.43-3.87l.19-.18 2.36-.31c3.23-.43 2.9-.93 1.82-3.86l-4.47-12.52c-.73-2.14-.86-2-3.13-2h-12.61c-2.14 0-1.76 0-2.47 2l-3.89 11c-.22.61-1.46 3.89-1 4.49.3.38 1.9.58 2.36.66l3 .5.18.17c1 1 .94 3.26-.4 3.91l-.18.09h-.22c-3.33-.19-6.69-.19-10-.27-3.13 0-6.24.1-9.36.27h-.28l-.23-.16c-1.16-.81-1.08-2.74-.25-3.77l.19-.23 3.15-.51c2.78-.45 3.46-1.33 4.63-3.8 1.7-3.6 3.1-7.5 4.63-11.17 1.87-4.4 15.24-34.6 14.73-37.4l-.13-.75.76-.14c2.82-.55 6.15-4.44 6.8-4.44a2.74 2.74 0 0 1 2.24 1l.08.1v.12c6.1 16.42 11.87 33.06 18 49.52 1.8 4.84 1.68 6.11 6.9 7.12l1.63.32.16.14c1 .88 1.23 3 0 3.87l-.23.16h-.28c-4.1-.2-8.18-.28-12.3-.28m80.23-56.19c-1.48 3.09-1.25 14.1-1.25 17.8V83c0 7.47-1 16-6.48 21.77-4.94 5.16-12.11 7.15-19.19 7.15s-14.73-1.11-20.11-6.1-6.51-13.29-6.51-20.24v-22c0-1.79.22-7.69-1.43-9a8.58 8.58 0 0 0-3.23-.94l-1.78-.3-.18-.17c-1-1-.93-3.17.4-3.82l.19-.09h.21c4.06.2 8.14.28 12.2.28q6.34 0 12.69-.28h.2l.19.09c1.33.65 1.38 2.86.4 3.82l-.19.18-2.36.31a7.62 7.62 0 0 0-3.17.84c-1.68 1.26-1.45 7.27-1.45 9.06v19.72c0 10.88 2.88 22.59 16.38 22.59s16.77-11.17 16.77-22.32V73.41c0-3.59.11-14.87-1.69-17.72-.88-1.39-2.64-1.79-4.19-2l-2.1-.31-.17-.12c-1.28-1-1.22-3.44.46-3.93h.27c3.49.2 7 .28 10.49.28s6.67-.1 10-.28h.26l.21.13a2.49 2.49 0 0 1 .29 3.81l-.15.13-2.3.5c-1.2.25-3.06.54-3.62 1.78M357 81.79a1.62 1.62 0 0 0 .25.51c3.11 5.08 6.2 10.26 9.56 15.18 1.94 2.84 4.37 6.25 7.07 8.45a12 12 0 0 0 6.1 2.67h.25l.18.15a2.34 2.34 0 0 1 .38 2.84l-.17.27-.32.08a28.05 28.05 0 0 1-6.46.58c-10.14 0-15.17-4.56-20.51-12.49-2.72-4-4.92-8.41-7.51-12.54-1.54-2.45-2.29-2.75-5.2-2.75a8.73 8.73 0 0 0-2.07.13 4.59 4.59 0 0 0-.08 1.12v11.8c0 1.76-.22 7.74 1.43 9a7.86 7.86 0 0 0 3.2.83l2.35.31.19.18c1 1 .93 3.26-.4 3.91l-.18.09h-.21q-6.29-.28-12.59-.28t-12.78.28h-.21L319 112a2.51 2.51 0 0 1-.33-4l.17-.13 2.31-.3a7.86 7.86 0 0 0 3.19-.83c1.66-1.24 1.43-7.22 1.43-9V64.12c0-1.65.3-7.63-1.07-8.84a5.62 5.62 0 0 0-2.78-.79l-2.74-.3L319 54a2.55 2.55 0 0 1 .24-3.78l.16-.09h.18c7.22-.66 14.67-.83 21.91-.83 5.74 0 13.28.55 18.42 3.22 5.69 3 8.77 7.82 8.77 14.11 0 7.45-5.06 12.52-11.75 15.19m93.94-26.18c-1.49 3.09-1.26 14.1-1.26 17.8V83c0 7.47-1 16-6.47 21.77-5 5.16-12.11 7.15-19.2 7.15s-14.72-1.12-20.1-6.1-6.52-13.29-6.52-20.24v-22c0-1.79.22-7.69-1.42-9a8.63 8.63 0 0 0-3.23-.94l-1.87-.31-.18-.17c-1-1-.92-3.17.4-3.82l.19-.09h.21c4.06.2 8.14.28 12.21.28q6.35 0 12.68-.28h.21l.19.09c1.32.65 1.38 2.86.39 3.82l-.19.18-2.35.31a7.67 7.67 0 0 0-3.18.84c-1.67 1.26-1.45 7.27-1.45 9.06v19.73c0 10.88 2.88 22.59 16.39 22.59S443.1 94.7 443.1 83.55V73.41c0-3.59.12-14.87-1.68-17.72-.88-1.39-2.65-1.79-4.19-2l-2.1-.31-.17-.12c-1.28-1-1.22-3.44.45-3.93h.28c3.49.2 7 .28 10.49.28 3.35 0 6.66-.1 10-.28h.25l.21.13a2.49 2.49 0 0 1 .3 3.81l-.16.13-2.29.5c-1.2.25-3.06.54-3.62 1.78M534.47 66q-2.19 4.41-4.37 8.86L521.94 91c-3.37 6.68-6.92 14-9.66 20.91l-.06.15-.12.12c-.73.71-2.58.59-3.42.12l-.28-.14-.09-.29a159.85 159.85 0 0 0-7.84-18.49L492 75.75a304.73 304.73 0 0 1-4.29-9.55c-.15 4.13-.28 8.26-.45 12.39-.28 7.09-.38 14.22-.38 21.31 0 1.44-.18 5.22.86 6.37a5.08 5.08 0 0 0 2.66 1.06l3.35.58.17.14c1 .87 1.07 3.3-.26 4l-.19.09h-.22c-3.3-.18-6.6-.28-9.91-.28s-6.76.11-10.12.28H473l-.2-.11a2.67 2.67 0 0 1-.41-3.94l.18-.14 1.85-.21c4.73-.54 4.7-2.63 5.19-6.87.82-7 1-14.23 1.42-21.29.35-6.45 1-13 1-19.46 0-3.46-.78-5.41-4.47-6l-3.51-.6-.19-.21c-.89-1-.73-3.42.74-3.9l.15-.05h.15c3 .19 5.9.28 8.87.28 3.37 0 6.73 0 10.09-.28l.81-.06.06.78c.37 5.41 2.78 10.18 5.14 15l10.44 21.25c1.14 2.32 2.43 4.72 3.73 7 1.49-2.73 2.84-5.54 4.24-8.31l8.92-17.66c2.85-5.64 6-11.3 7.63-17.42l.17-.63.66.05c2.56.19 5.17.28 7.73.28 3.3 0 6.62 0 9.91-.28h.17l.16.06a2.32 2.32 0 0 1 .42 4l-.13.08-3.29.48c-4.2.62-4.45 2.36-4.45 6.23 0 13.61.2 27.22.86 40.81.06 1.39.15 4.87 1.48 5.8a5.72 5.72 0 0 0 2.22.65l2.83.47h.08c1.68.65 1.48 3.52-.21 4.11h-.31c-3.85-.18-7.69-.28-11.54-.28q-6.35 0-12.69.28h-.2l-.19-.09c-1.39-.67-1.68-3.19-.25-4l.13-.08 2.71-.48a5.6 5.6 0 0 0 2.61-.88c1-.94.81-4.68.81-5.91V66zM200.75 83.45a4.62 4.62 0 0 0-.3-1.23l-4-11c-.29-.84-1.28-4.09-2-5.91-.81 1.83-1.65 4.46-2.19 5.93l-4 10.75a11.42 11.42 0 0 0-.49 1.6 11.39 11.39 0 0 0 1.25 0h9.88a8.13 8.13 0 0 0 1.82-.13m141.43-3.73c8.73 0 12.77-4 12.77-12.38 0-7.07-4.69-12.84-12.3-12.84-4.18 0-4.23-.25-4.23 3.73v19.12c0 .36-.05 1.73.2 2 .36.42 3.05.36 3.56.36M77.24 131a11.67 11.67 0 0 1-3.2-.4c-.78 7.21-4.14 14.14-9.89 18.46a63.79 63.79 0 0 0 13.09 12.53 64 64 0 0 0 13.08-12.49c-5.74-4.32-9.1-11.24-9.89-18.46a11.54 11.54 0 0 1-3.19.4m0 35.36l.2-.13 1.75-1.12a67 67 0 0 0 14.53-13.9c22.25 12.07 45.29-10.85 33.12-33a63.09 63.09 0 0 0 13.58-14.49l1.05-1.6h-4.8A59.53 59.53 0 0 1 125 114.58v.07l-3.47 2.52-.59.4-.12.09c-5.21 3.47-10.86 6-16.27 6.62l-.55.06c-1.92-9.88-7.81-10.54-14.48-10.48-.56 6.54.67 12.54 10.54 14.47l-.06.56c-.66 5.66-3.45 11.58-7.25 17A22.88 22.88 0 0 1 83.62 129a16.46 16.46 0 0 1 0-2.1h-.12v-.08a13.06 13.06 0 0 1-6.3 1.68 13.05 13.05 0 0 1-6.31-1.67v.08h-.12a16.43 16.43 0 0 1 0 2.1 22.85 22.85 0 0 1-9.11 16.93c-3.8-5.41-6.59-11.33-7.25-17l-.06-.56c9.87-1.93 11.1-7.93 10.54-14.48-6.67 0-12.56.61-14.48 10.48h-.54c-5.42-.66-11.07-3.15-16.28-6.62l-.11-.09-.6-.4-3.47-2.53v-.06a59.53 59.53 0 0 1-11.61-12.51 59.28 59.28 0 0 1 11.66-12.41.43.43 0 0 0 0-.07L33 87.17l.6-.4.11-.09c5.21-3.47 10.86-6 16.28-6.62l.54-.06C52.41 89.86 58.3 90.52 65 90.48c.56-6.55-.67-12.55-10.54-14.48l.06-.56c.66-5.66 3.45-11.58 7.25-17a22.83 22.83 0 0 1 9.11 16.93 16.46 16.46 0 0 1 0 2.1H71v.08a12.67 12.67 0 0 1 12.61 0v-.09h.12a16.31 16.31 0 0 1 0-2.09 22.86 22.86 0 0 1 9.11-16.93c3.8 5.41 6.59 11.32 7.25 17L100 76c-9.87 1.93-11.1 7.93-10.54 14.47 6.67 0 12.56-.61 14.48-10.48l.55.06c5.41.65 11.06 3.15 16.27 6.62l.12.08.59.4 3.53 2.54a.25.25 0 0 1 0 .07 59.28 59.28 0 0 1 11.66 12.41h4.8l-1.05-1.6a63.09 63.09 0 0 0-13.58-14.49C139 63.93 116 41 93.72 53.08a66.56 66.56 0 0 0-14.53-13.9l-1.75-1.12-.2-.13-.21.13-1.75 1.12a67.26 67.26 0 0 0-14.53 13.9C38.5 41 15.46 63.93 27.63 86.08a63.09 63.09 0 0 0-13.58 14.49l-1.05 1.6 1.05 1.6a62.85 62.85 0 0 0 13.58 14.48c-12.17 22.16 10.87 45.08 33.12 33a67.26 67.26 0 0 0 14.53 13.9l1.72 1.13zM100 124.26c-4.49-.59-8.08-3.56-7.84-8.17 4.93 0 7.57 3.8 7.84 8.17m23.62-3.61c9.61 17.9-8.9 36.33-27.42 27.33 4.07-5.88 7.06-12.34 7.79-18.61 0-.32.07-.65.09-1l1-.1c6.25-.75 12.71-3.64 18.58-7.64m-69 3.61c.27-4.38 2.91-8.14 7.85-8.17.23 4.61-3.36 7.58-7.85 8.17m-23.76-3.59c5.88 4 12.34 6.89 18.58 7.64l1 .1.09 1c.74 6.27 3.72 12.73 7.8 18.61-18.53 9-37-9.43-27.43-27.33M100 80.08c-.27 4.37-2.91 8.13-7.84 8.17-.24-4.61 3.35-7.58 7.84-8.17m23.62 3.61c-5.87-4-12.33-6.9-18.58-7.65q-.48-.06-1-.09 0-.49-.09-1c-.73-6.26-3.72-12.72-7.79-18.61 18.52-9 37 9.43 27.42 27.34m-69-3.61c4.49.59 8.08 3.56 7.85 8.17-4.94 0-7.58-3.8-7.85-8.17M30.9 83.69c-9.61-17.9 8.9-36.33 27.43-27.34-4.08 5.89-7.06 12.35-7.8 18.65l-.09 1q-.48 0-1 .09c-6.24.76-12.7 3.65-18.58 7.65"/></svg>