<svg id="Слой_1" data-name="Слой 1" xmlns="http://www.w3.org/2000/svg" viewBox="0 0 566.93 197.07"><defs><style>.cls-1{fill:#5b001c;fill-rule:evenodd}</style></defs><title>aurum_logo_ukr</title><path class="cls-1" d="M29.46 79.59c-9.55-17.8 8.85-36.11 27.25-27.17-4.05 5.85-7 12.27-7.74 18.49 0 .33-.07.66-.09 1l-1 .1c-6.2.74-12.62 3.62-18.46 7.6M52.93 76c4.46.59 8 3.54 7.8 8.12-4.91-.04-7.53-3.77-7.8-8.12zm68.63 3.59c9.55-17.8-8.85-36.11-27.26-27.17 4 5.85 7 12.27 7.74 18.49 0 .33.07.65.1 1l1 .1c6.16.72 12.58 3.59 18.42 7.58zM98.08 76c-4.46.58-8 3.53-7.8 8.12 4.91-.04 7.54-3.78 7.8-8.12zm-68.62 40.31c-9.55 17.8 8.85 36.11 27.25 27.17-4.05-5.85-7-12.27-7.74-18.49 0-.33-.07-.65-.09-1l-1-.1c-6.16-.72-12.58-3.59-18.42-7.58zm23.47 3.59c4.46-.58 8-3.53 7.8-8.12-4.91.04-7.53 3.78-7.8 8.12zm68.63-3.58c9.55 17.79-8.85 36.1-27.26 27.16 4-5.84 7-12.27 7.74-18.49 0-.32.07-.65.1-1 .32 0 .64-.06 1-.09 6.16-.73 12.58-3.6 18.42-7.58zm-23.48 3.58c-4.46-.58-8-3.53-7.8-8.11 4.91.03 7.54 3.77 7.8 8.11zm-22.57 41.89l-.21-.13-1.74-1.11a67.12 67.12 0 0 1-14.44-13.81c-22.11 12-45-10.79-32.91-32.8a62.29 62.29 0 0 1-13.49-14.4L11.67 98l1.05-1.59A62.49 62.49 0 0 1 26.21 82C14.11 60 37 37.17 59.12 49.17a66.94 66.94 0 0 1 14.44-13.82l1.74-1.11.21-.13.2.13 1.74 1.11a66.89 66.89 0 0 1 14.44 13.81C114 37.17 136.9 60 124.81 82a62.7 62.7 0 0 1 13.49 14.4l1 1.59h-4.77A59.06 59.06 0 0 0 123 85.62v-.07l-3.45-2.5-.59-.4-.12-.08C113.63 79.1 108 76.62 102.63 76l-.55-.06c-1.9 9.81-7.76 10.47-14.38 10.42-.56-6.51.66-12.47 10.47-14.38 0-.19 0-.38-.06-.57-.65-5.62-3.43-11.51-7.2-16.88a22.71 22.71 0 0 0-9.06 16.83 18.18 18.18 0 0 0 0 2.08h-.12v.08a12.85 12.85 0 0 0-6.26-1.66 13 13 0 0 0-6.27 1.66v-.08h-.12a16.12 16.12 0 0 0 0-2.08A22.67 22.67 0 0 0 60.1 54.5c-3.77 5.38-6.54 11.26-7.2 16.89l-.06.56c9.81 1.91 11 7.88 10.48 14.38-6.63 0-12.48-.61-14.39-10.42l-.54.06c-5.39.65-11 3.13-16.18 6.58l-.11.08-.59.4-3.44 2.5-.05.07A59 59 0 0 0 16.44 98 59 59 0 0 0 28 110.28l.05.07 3.44 2.5c.19.14.39.27.59.4l.11.09c5.18 3.44 10.79 5.93 16.18 6.57l.54.06c1.91-9.81 7.76-10.47 14.39-10.42.56 6.51-.67 12.47-10.48 14.39l.06.56c.66 5.62 3.43 11.51 7.2 16.88a22.67 22.67 0 0 0 9.06-16.82 16.27 16.27 0 0 0 0-2.09h.12v-.08a12.92 12.92 0 0 0 6.27 1.66 13 13 0 0 0 6.26-1.67v.08h.12a18.35 18.35 0 0 0 0 2.09 22.69 22.69 0 0 0 9.06 16.82c3.77-5.37 6.55-11.26 7.2-16.88 0-.19 0-.37.06-.56-9.81-1.92-11-7.88-10.47-14.38 6.62 0 12.48.6 14.38 10.41l.55-.06c5.38-.64 11-3.13 16.17-6.57l.12-.09.59-.4 3.45-2.51v-.06A59.1 59.1 0 0 0 134.58 98h4.77l-1 1.59a62.5 62.5 0 0 1-13.49 14.4c12.09 22-10.8 44.79-32.92 32.8A66.41 66.41 0 0 1 77.5 160.6l-1.74 1.12-.2.12zm0-35.15a11.13 11.13 0 0 1-3.18-.39c-.78 7.17-4.12 14.05-9.83 18.34a63.84 63.84 0 0 0 13 12.46 63.27 63.27 0 0 0 13-12.46c-5.71-4.29-9.05-11.17-9.83-18.34a11.44 11.44 0 0 1-3.17.4zm263.31-51c8.67 0 12.7-3.92 12.7-12.31 0-7-4.67-12.76-12.23-12.76-4.16 0-4.21-.24-4.21 3.71v19a5.47 5.47 0 0 0 .2 2c.36.42 3.03.36 3.54.36zm-140.56 3.71a4.62 4.62 0 0 0-.3-1.23l-4-11c-.3-.85-1.28-4.07-2-5.88-.8 1.82-1.63 4.43-2.17 5.89l-4 10.68a14.23 14.23 0 0 0-.48 1.6 11.21 11.21 0 0 0 1.24 0h9.82a8.68 8.68 0 0 0 1.89-.06zM529.93 62c-1.46 2.93-2.9 5.86-4.35 8.81l-8.11 16.09c-3.35 6.64-6.87 13.89-9.6 20.78l-.06.16-.12.11c-.73.71-2.56.59-3.4.12l-.27-.14-.09-.29a160.49 160.49 0 0 0-7.8-18.38l-8.4-17.56c-1.46-3.12-2.9-6.3-4.27-9.48-.15 4.1-.28 8.2-.44 12.31-.29 7-.38 14.13-.38 21.18 0 1.42-.18 5.19.85 6.32a4.93 4.93 0 0 0 2.65 1.06l3.33.58.16.14c1 .87 1.07 3.28-.26 3.92l-.19.09H489c-3.3-.17-6.57-.28-9.87-.28s-6.7.11-10.05.28h-.23l-.2-.11a2.64 2.64 0 0 1-.4-3.91l.18-.14 1.84-.21c4.7-.54 4.66-2.61 5.15-6.82.81-7 1-14.15 1.41-21.17.35-6.41.94-12.92.94-19.34 0-3.44-.76-5.38-4.44-6l-3.48-.59-.19-.21c-.89-1-.73-3.41.73-3.88l.15-.05h.15c2.95.19 5.87.27 8.82.27 3.35 0 6.69 0 10-.27l.8-.06.06.78c.37 5.37 2.76 10.11 5.11 14.89l10.38 21.12c1.13 2.3 2.41 4.69 3.7 7 1.48-2.7 2.82-5.5 4.21-8.25l8.87-17.55c2.83-5.61 6-11.24 7.59-17.32l.16-.62.66.05c2.54.18 5.14.27 7.68.27 3.27 0 6.58 0 9.85-.27h.17l.16.06a2.32 2.32 0 0 1 .42 4l-.14.07-3.26.48c-4.18.62-4.43 2.34-4.43 6.19 0 13.52.2 27.05.85 40.56.07 1.38.16 4.84 1.48 5.76a5.68 5.68 0 0 0 2.21.65l2.81.47h.08c1.67.64 1.46 3.49-.21 4.08h-.31c-3.82-.17-7.64-.28-11.47-.28q-6.32 0-12.61.28h-.2l-.19-.09c-1.38-.67-1.67-3.17-.24-4l.12-.07 2.7-.48a5.66 5.66 0 0 0 2.59-.87c1-.94.81-4.66.81-5.87V62zm-83.08-10.32c-1.47 3.07-1.24 14-1.24 17.69v9.53c0 7.42-1 16-6.44 21.64-4.91 5.13-12 7.1-19.07 7.1s-14.64-1.1-20-6.06-6.47-13.21-6.47-20.12V59.59c0-1.79.22-7.65-1.41-8.92a8.39 8.39 0 0 0-3.22-.93l-1.85-.32-.17-.17c-1-1-.93-3.15.39-3.79l.19-.09h.21c4 .2 8.09.27 12.13.27 4.2 0 8.4-.08 12.6-.27h.21l.18.09c1.32.64 1.38 2.84.4 3.79l-.19.18-2.34.31a7.49 7.49 0 0 0-3.15.84c-1.67 1.25-1.45 7.22-1.45 9v19.6c0 10.81 2.87 22.45 16.29 22.45s16.66-11.1 16.66-22.18V69.37c0-3.57.12-14.78-1.68-17.61-.87-1.38-2.63-1.78-4.16-2l-2.09-.3-.16-.13c-1.28-1-1.22-3.42.45-3.9h.27c3.47.2 6.95.27 10.42.27s6.63-.1 10-.27h.25l.22.13a2.47 2.47 0 0 1 .29 3.78l-.15.13-2.29.5c-1.22.19-3.06.47-3.63 1.71zm-93.35 26a2 2 0 0 0 .24.51c3.09 5.05 6.17 10.19 9.51 15.09 1.92 2.82 4.34 6.2 7 8.39a12 12 0 0 0 6.07 2.66h.24l.19.14a2.34 2.34 0 0 1 .37 2.82l-.17.28-.32.08a28.21 28.21 0 0 1-6.42.57c-10.07 0-15.07-4.53-20.38-12.42-2.71-4-4.89-8.35-7.46-12.45-1.54-2.44-2.28-2.74-5.18-2.74a8.6 8.6 0 0 0-2 .13 4.51 4.51 0 0 0-.08 1.11V93.6c0 1.75-.22 7.69 1.42 8.92a7.81 7.81 0 0 0 3.18.83l2.34.31.19.18c1 1 .92 3.24-.4 3.88l-.18.09h-.21c-4.16-.18-8.34-.28-12.51-.28s-8.47.1-12.7.28H316l-.18-.09a2.49 2.49 0 0 1-.32-4l.17-.12 2.28-.3a7.77 7.77 0 0 0 3.18-.83c1.64-1.23 1.42-7.17 1.42-8.92V60.13c0-1.63.29-7.58-1.06-8.78a5.47 5.47 0 0 0-2.77-.78l-2.72-.31-.2-.19a2.53 2.53 0 0 1 .24-3.75l.15-.1h.19c7.17-.66 14.58-.82 21.78-.82 5.7 0 13.19.54 18.3 3.2 5.65 2.94 8.72 7.77 8.72 14 0 7.4-5.03 12.45-11.68 15.1zm-60.5-26c-1.47 3.07-1.24 14-1.24 17.69v9.53c0 7.42-1 16-6.44 21.64-4.91 5.13-12 7.1-19.07 7.1s-14.64-1.1-20-6.06-6.47-13.21-6.47-20.12V59.59c0-1.79.22-7.65-1.42-8.92a8.29 8.29 0 0 0-3.21-.93l-1.85-.32-.17-.17c-1-1-.93-3.15.39-3.79l.19-.09h.21c4 .2 8.09.27 12.13.27 4.2 0 8.4-.08 12.6-.27h.21l.18.09c1.33.64 1.38 2.84.4 3.79l-.19.18-2.34.31a7.49 7.49 0 0 0-3.15.84c-1.67 1.25-1.45 7.22-1.45 9v19.6c0 10.81 2.87 22.45 16.29 22.45s16.66-11.1 16.66-22.18V69.37c0-3.57.11-14.78-1.68-17.61-.87-1.38-2.63-1.78-4.16-2l-2.09-.3-.16-.13c-1.28-1-1.22-3.42.44-3.9h.28c3.47.2 6.95.27 10.42.27s6.63-.1 10-.27h.25l.21.13a2.46 2.46 0 0 1 .3 3.78l-.16.13-2.28.5c-1.25.19-3.1.47-3.63 1.71zm-79.73 55.84c-3.83 0-7.66.17-11.49.28h-.24l-.2-.12a2.73 2.73 0 0 1-.42-3.84l.19-.18 2.34-.31c3.2-.43 2.88-.92 1.81-3.84l-4.44-12.44c-.73-2.12-.86-1.94-3.12-1.94h-12.57c-2.14 0-1.76 0-2.46 2l-3.87 11c-.22.61-1.45 3.87-1 4.47.29.37 1.89.57 2.34.65l3 .5.18.17c1 1 .92 3.24-.4 3.88l-.19.09h-.21c-3.31-.2-6.66-.2-9.95-.28-3.11 0-6.2.11-9.3.28H163l-.22-.15c-1.17-.81-1.08-2.73-.26-3.75l.19-.24 3.13-.5c2.76-.45 3.44-1.32 4.6-3.77 1.69-3.58 3.08-7.46 4.6-11.11 1.87-4.47 15.14-34.43 14.65-37.18l-.14-.74.76-.15c2.8-.54 6.11-4.4 6.76-4.4a2.72 2.72 0 0 1 2.22 1l.08.1v.12c6.06 16.31 11.79 32.85 17.87 49.21 1.79 4.81 1.68 6.08 6.86 7.08l1.62.32.16.13c1 .88 1.22 3 0 3.86l-.23.15h-.27c-4-.26-8.05-.35-12.14-.35zm330.37 25v6.31c0 1 0 1-1.51 1-3.11 0-4.54-1.45-4.54-4.34a4.27 4.27 0 0 1 4.38-4.49c1.61 0 1.64.1 1.64 1.5zm3.68 13.05v-11.13c0-2.91 0-3.28 1.52-3.43l.82-.09a.58.58 0 0 0 0-.85c-2-.18-4.69-.27-7.28-.27a13.78 13.78 0 0 0-6 1 4.75 4.75 0 0 0-2.79 4.43c0 2.79 2.25 4.19 3.8 4.79.19.1.13.34 0 .52-2.53 4.1-4.12 6.68-5.61 7.86a4.09 4.09 0 0 1-2.18.94.55.55 0 0 0-.07.61 9.09 9.09 0 0 0 2.09.18c3.05 0 4.69-1.18 6.63-4 .85-1.27 1.74-2.94 2.5-4.12a1.79 1.79 0 0 1 2-1c1 0 1 0 1 .67v3.89c0 3.21-.28 3.31-1.77 3.49l-.7.09c-.22.21-.19.76.07.88 1.39-.06 2.82-.09 4.21-.09s2.82 0 4.28.09a.58.58 0 0 0 .06-.88l-.7-.09c-1.63-.2-1.91-.3-1.91-3.51zm-22.27 0v-11.31c0-3.22.28-3.31 1.77-3.49l.7-.09c.22-.21.19-.76-.06-.88-1.4.06-2.82.09-4.22.09s-2.88 0-4.27-.09c-.26.12-.29.67-.06.88l.69.09c1.49.18 1.78.27 1.78 3.49v11.29c0 3.21-.29 3.31-1.78 3.49l-.69.09c-.23.21-.2.76.06.88 1.39-.06 2.88-.09 4.27-.09s2.82 0 4.22.09c.25-.12.28-.67.06-.88l-.7-.09c-1.52-.18-1.82-.28-1.82-3.49zm-25.63-5.34h7.41c1.62 0 1.72.06 1.72.88v4.46c0 3.21-.29 3.31-1.78 3.49l-.69.09a.62.62 0 0 0 .06.88c1.39-.06 2.82-.09 4.28-.09s2.82 0 4.21.09c.25-.12.28-.67.06-.88L514 149c-1.48-.18-1.77-.28-1.77-3.49v-11.25c0-3.22.29-3.25 1.77-3.49l.58-.09a.64.64 0 0 0-.07-.88c-1.26.06-2.69.09-4.08.09s-2.82 0-4.28-.09a.63.63 0 0 0-.06.88l.69.09c1.49.18 1.78.27 1.78 3.49v3.67c0 .85-.1.91-1.72.91h-7.41c-1.61 0-1.71-.06-1.71-.91v-3.67c0-3.22.29-3.25 1.78-3.49l.53-.09a.62.62 0 0 0-.06-.88c-1.23.06-2.66.09-4.05.09s-2.88 0-4.28-.09a.64.64 0 0 0-.06.88l.7.09c1.48.18 1.77.27 1.77 3.49v11.29c0 3.21-.29 3.31-1.77 3.52l-.45.06c-.22.21-.19.76.06.88 1.21-.06 2.63-.09 4-.09s2.82 0 4.46.09c.26-.12.29-.67.07-.88l-1-.12c-1.49-.19-1.78-.25-1.78-3.46v-4.46c.04-.82.14-.88 1.75-.88zm-20.24.91h-3.29c-.76 0-.83 0-.51-.88l1.33-3.55c.54-1.43.82-2.19.95-2.4h.06a17.49 17.49 0 0 1 .89 2.4l1.33 3.64c.22.71.06.77-.79.77zm-3.8 1.36h4.21c.89 0 1 0 1.3.82l1.49 4.13c.48 1.27.32 1.45-.82 1.61l-.7.09a.68.68 0 0 0 .09.88c1.11 0 2.51-.09 3.87-.09 1.65 0 2.82 0 4.12.09a.64.64 0 0 0 0-.88l-.48-.09c-1.61-.31-1.77-.49-2.5-2.52l-4.56-12.72c-.51-1.36-.92-2.79-1.43-4.15a.64.64 0 0 0-.54-.25 5.43 5.43 0 0 1-2.21 1.46 5.22 5.22 0 0 1-.61 2.22l-4.34 10.8c-.66 1.64-1.17 2.91-1.55 3.7a2 2 0 0 1-1.74 1.4l-.95.15a.66.66 0 0 0 0 .88c1.11-.06 2.09-.09 3.14-.09 1.3 0 2.34 0 3.36.09.25-.12.28-.67.06-.88l-.92-.15c-1.17-.19-1.3-.25-.67-2l1.3-3.64c.26-.88.23-.88 1.05-.88zm-25.15-11.4h8.11c1.36 0 1.36.06 1.36 1.79v12.66c0 3.21-.28 3.31-1.77 3.49l-.7.09c-.22.21-.19.76.07.88 1.39-.06 2.81-.09 4.27-.09s2.82 0 4.22.09c.25-.12.28-.67.06-.88l-.7-.09c-1.49-.18-1.77-.28-1.77-3.49v-11.29c0-3.22.28-3.25 1.77-3.49l.57-.09a.64.64 0 0 0-.06-.88c-1.27.06-2.69.09-4.09.09h-14.51c-1.39 0-2.88 0-4.27-.09a.63.63 0 0 0-.07.88l.7.09c1.49.18 1.77.27 1.77 3.49v11.29c0 3.21-.28 3.31-1.77 3.52l-.44.06a.62.62 0 0 0 .06.88c1.2-.06 2.63-.09 4-.09s2.82 0 4.47.09c.25-.12.28-.67.06-.88l-.95-.12c-1.49-.19-1.77-.25-1.77-3.46v-12.66c.02-1.73.02-1.79 1.38-1.79zm-11.85 18l-.92-.15c-1-.16-1.36-.34-1.45-2.37-.22-4.49-.29-9-.29-13.47 0-1.61.32-2.1 1.71-2.31l1.05-.15a.51.51 0 0 0-.1-.88c-.88.06-2 .09-3.32.09-.7 0-1.74 0-2.6-.09a30.56 30.56 0 0 1-2.57 5.79l-3 5.83c-.73 1.43-1.14 2.28-1.65 3.15-.41-.69-1.24-2.21-1.49-2.73l-3.48-7a13.31 13.31 0 0 1-1.75-5c-1.17.09-2.28.09-3.39.09s-2 0-3-.09c-.29.09-.32.67-.13.88l1.08.18c1.23.21 1.71.82 1.71 2.24 0 1.86-.19 4.38-.32 6.44-.16 3.15-.25 5.13-.47 7s-.45 2.3-2 2.49l-.54.06a.64.64 0 0 0 .1.88c1.23-.06 2.37-.09 3.39-.09s2.15 0 3.32.09c.26-.12.26-.7 0-.88l-1-.18c-1.36-.25-1.39-.7-1.39-2.7 0-2.49.06-5.19.12-7 .07-1.28.13-3.65.19-5.13h.07c.38.91 1.23 2.82 1.83 4.09L421 144c.73 1.52 2.09 4.49 2.63 6.13a1 1 0 0 0 .83 0c.57-1.43 2.15-4.8 3.23-6.92l2.72-5.34c.6-1.21 1.05-2.12 1.9-3.79h.07v12.41c0 2.06-.1 2.27-1.37 2.49l-.85.15c-.32.18-.19.76.06.88 1.4-.06 2.76-.09 4.25-.09 1.26 0 2.5 0 3.86.09.34-.12.37-.76.05-.88zm-48.81-9.83c0-6.47 3.45-8.68 6.62-8.68 5 0 7.19 5.31 7.19 9.89 0 6.1-2.91 8.68-6.52 8.68-5.42.03-7.29-5.68-7.29-9.86zm18.12.66c0-5.52-3.77-10.56-11.09-10.56-6.65 0-11.34 4.58-11.34 10.78 0 5.4 4.12 10.22 11.28 10.22 6.4.03 11.15-4.43 11.15-10.37zm-37.47.58c1.17 1.15 4.87 5.86 4.87 5.86 2.22 2.64 3.93 3.76 7 3.76a9 9 0 0 0 2.09-.18.53.53 0 0 0-.06-.61 5 5 0 0 1-3.23-1.49c-2.28-2.55-5.29-6.16-7.79-9.31-.35-.46-.29-.64.09-1 1.24-1.19 2.5-2.43 3.87-3.73 2.18-2 3-2.77 6-3.16a.51.51 0 0 0-.09-.88c-1.14 0-2.13.09-3.49.09-1.17 0-2.21 0-3.54-.09a.61.61 0 0 0-.07.88l1 .27c.39.09.35.34-.22 1a24.07 24.07 0 0 1-1.71 1.88l-3.23 3.34c-1.05 1.09-1.77 1.79-2.38 1.79s-.53-.54-.53-1.36v-3.37c0-3.22.28-3.25 1.77-3.49l.54-.09a.64.64 0 0 0-.06-.88c-1.24.06-2.67.09-4.06.09s-2.88 0-4.18-.09a.63.63 0 0 0-.07.88l.61.09c1.49.21 1.77.27 1.77 3.49v11.29c0 3.21-.28 3.31-1.77 3.52l-.45.06a.63.63 0 0 0 .07.88c1.14-.06 2.63-.09 4-.09s2.82 0 4.31.09a.64.64 0 0 0 .06-.88l-.79-.09c-1.49-.18-1.77-.28-1.77-3.49v-3.86c0-.88-.07-1.6.73-1.6a1.3 1.3 0 0 1 .71.51zm-34.57.58h-3.29c-.76 0-.82 0-.51-.88l1.33-3.55c.54-1.43.83-2.19.95-2.4h.07a18.38 18.38 0 0 1 .88 2.4l1.33 3.64c.26.76.13.82-.76.82zm-3.8 1.36h4.22c.88 0 1 0 1.29.82l1.49 4.13c.48 1.27.32 1.45-.82 1.61l-.7.09a.68.68 0 0 0 .1.88c1.11 0 2.5-.09 3.87-.09 1.64 0 2.81 0 4.11.09a.64.64 0 0 0 0-.88l-.48-.09c-1.61-.31-1.77-.49-2.5-2.52l-4.56-12.72c-.51-1.36-.92-2.79-1.43-4.15a.63.63 0 0 0-.53-.25 5.57 5.57 0 0 1-2.22 1.46 5.17 5.17 0 0 1-.6 2.22l-4.34 10.8c-.67 1.64-1.17 2.91-1.55 3.7a2 2 0 0 1-1.75 1.4l-.95.15a.66.66 0 0 0 0 .88c1.11-.06 2.1-.09 3.14-.09 1.3 0 2.34 0 3.36.09.25-.12.28-.67.06-.88l-.92-.15c-1.17-.19-1.3-.25-.66-2l1.3-3.64c.28-.83.22-.83 1.07-.83zm-24.77-2.27h7.41c1.62 0 1.72.06 1.72.88v4.46c0 3.21-.29 3.31-1.78 3.49l-.7.09a.63.63 0 0 0 .07.88c1.39-.06 2.82-.09 4.28-.09s2.82 0 4.21.09c.25-.12.28-.67.06-.88l-.7-.09c-1.49-.18-1.77-.28-1.77-3.49v-11.26c0-3.22.28-3.25 1.77-3.49l.57-.09a.63.63 0 0 0-.06-.88c-1.26.06-2.69.09-4.08.09s-2.82 0-4.28-.09a.64.64 0 0 0-.07.88l.7.09c1.49.18 1.78.27 1.78 3.49v3.67c0 .85-.1.91-1.72.91h-7.41c-1.61 0-1.71-.06-1.71-.91v-3.67c0-3.22.29-3.25 1.78-3.49l.53-.09a.63.63 0 0 0-.06-.88c-1.23.06-2.66.09-4.05.09s-2.89 0-4.28-.09a.64.64 0 0 0-.06.88l.69.09c1.49.18 1.78.27 1.78 3.49v11.29c0 3.21-.29 3.31-1.78 3.52l-.44.06c-.22.21-.19.76.06.88 1.21-.06 2.63-.09 4-.09s2.82 0 4.46.09c.26-.12.29-.67.07-.88l-1-.12c-1.49-.19-1.78-.25-1.78-3.46v-4.46c.08-.82.18-.88 1.79-.88zm-25.62-5.77v11.11c0 3.21-.29 3.33-1.78 3.52l-.5.06a.62.62 0 0 0 .06.88c1.27-.06 2.69-.09 4.09-.09s2.82 0 4.68.09c.23-.12.26-.67.07-.88l-1.18-.1c-1.49-.15-1.77-.25-1.77-3.46v-13.25c0-1.19 0-1.28 1.62-1.28a4.4 4.4 0 0 1 4.53 4.62c0 2.48-2.32 4.61-5.2 5.15a.58.58 0 0 0 .1.76 6.61 6.61 0 0 0 .79 0c2.5 0 8.36-1.39 8.36-6a5.14 5.14 0 0 0-2.69-4.55 14.08 14.08 0 0 0-6.64-1.19 61.22 61.22 0 0 0-7 .27c-.26.12-.26.64 0 .85l1.1.12c1.32.15 1.36.64 1.36 3.4zm-9.16 11.11v-11.26c0-3.22.29-3.31 1.77-3.49l.7-.09c.22-.21.19-.76-.06-.88-1.4.06-2.82.09-4.21.09s-2.89 0-4.28-.09a.62.62 0 0 0-.06.88l.69.09c1.49.18 1.78.27 1.78 3.49v11.29c0 3.21-.29 3.31-1.78 3.49l-.69.09a.62.62 0 0 0 .06.88c1.39-.06 2.88-.09 4.28-.09s2.81 0 4.21.09c.25-.12.28-.67.06-.88l-.7-.09c-1.48-.18-1.77-.28-1.77-3.49zm-21.73-14.42h3.52c1.61 0 1.71.06 1.71.88v13.57c0 3.21-.29 3.31-1.78 3.49l-.69.09c-.22.21-.19.76.06.88 1.39-.06 2.82-.09 4.28-.09s2.82 0 4.21.09a.62.62 0 0 0 .06-.88l-.69-.09c-1.49-.18-1.78-.28-1.78-3.49v-11.29c0-3.22.29-3.25 1.78-3.49l.57-.09a.63.63 0 0 0-.07-.88c-1.26.06-2.69.09-4.08.09h-10.3c-1.36 0-2.12-.06-3.48-.06-.19.09-.26.76-.07.88l.51.06c1.87.21 2.09.15 2.09 5 0 4.67-.38 8.19-1.39 9.86a4 4 0 0 1-3.64 1.94c-1.31 0-2 .58-2 1.43 0 .66.41 1.18 1.52 1.18 2.54 0 4.06-1.09 5.42-3.55 1.27-2.28 1.71-6.25 1.71-12 .03-2.16-.04-3.53 2.53-3.53zm-27.46 3.16v11.29c0 3.21-.29 3.31-1.78 3.46l-1.17.12c-.22.21-.19.76.06.88 1.43-.06 3.36-.09 4.75-.09h3.62c3.7 0 6.43 0 7.82.09a18.59 18.59 0 0 0 1.33-4.4.75.75 0 0 0-1-.18c-1.11 2.45-1.81 3.3-5.83 3.27-2.66 0-3.2-.24-3.58-.66s-.54-1.61-.54-3.16V141c0-.76 0-.82.76-.82h1.52c2.76 0 3.3.06 3.52 1.33l.22 1.21c.25.19.86.19 1 0 0-1-.09-2-.09-3.18s.06-2.22.09-3c-.15-.25-.76-.25-1 0l-.22 1c-.29 1.3-.76 1.33-3.52 1.33h-1.52c-.73 0-.76 0-.76-.82v-5.13c0-1.73 0-1.79 1.36-1.79h2.13a10.72 10.72 0 0 1 2.53.28c1 .27 1.49 1 2 2.76.25.18.88.12 1-.12-.19-1.31-.38-3.71-.51-4.22-.41.06-2.25.09-4.27.09H225c-1.39 0-2.88 0-4.08-.09-.25.12-.28.67-.06.88l.5.06c1.46.15 1.75.23 1.75 3.49zm-17.8 3.52v-5.49c0-1.22.09-1.28 1.67-1.28 2 0 4 1.06 4 3.74s-1.37 3.85-4.34 3.85c-1.24 0-1.33-.03-1.33-.82zm0 7.13v-4.37c0-.61.06-.79 1.45-.79 3.52 0 5.73 1.85 5.73 5a3.87 3.87 0 0 1-4.11 4.06c-2.76-.02-3.07-1.14-3.07-3.9zm-3.68-10.47v11.11c0 3.21-.28 3.31-1.77 3.49l-.7.09c-.22.21-.19.76.06.88 1.4-.06 2.88-.09 4.28-.09 1.2 0 2.53.09 3.93.09 3.61 0 5.7-.52 7.19-1.7a4.9 4.9 0 0 0 1.93-4c0-3.43-2.69-4.91-5.1-5.28-.19-.06-.25-.12-.25-.18a.22.22 0 0 1 .19-.18c2.22-.7 3.57-2.06 3.57-3.85a4.1 4.1 0 0 0-2.21-3.95c-1.43-.79-3.55-1-6.21-1-3.48 0-5.8.15-7.22.27a.58.58 0 0 0 0 .85l.82.09c1.46.08 1.49.45 1.49 3.36zm-24.52 4.86c0-6.47 3.45-8.68 6.62-8.68 5 0 7.19 5.31 7.19 9.89 0 6.1-2.91 8.68-6.52 8.68-5.4 0-7.29-5.71-7.29-9.89zm-4.91.91c.54 0 .57.48.6.85.32 4 4.12 9.34 11.28 9.34 6.4 0 11.15-4.46 11.15-10.44 0-5.52-3.77-10.56-11.09-10.56-6.65 0-11 4.28-11.11 8.53 0 .42-.13.91-.83.91h-1.71c-1.61 0-1.71-.06-1.71-.91v-3.67c0-3.22.29-3.25 1.77-3.49l.54-.09a.63.63 0 0 0-.06-.88c-1.24.06-2.66.09-4.05.09s-2.89 0-4.28-.09a.62.62 0 0 0-.06.88l.69.09c1.49.18 1.78.27 1.78 3.49v11.29c0 3.21-.29 3.31-1.78 3.52l-.44.06c-.22.21-.19.76.06.88 1.21-.06 2.63-.09 4-.09s2.81 0 4.46.09c.26-.12.29-.67.06-.88l-.95-.12c-1.48-.19-1.77-.25-1.77-3.46v-4.46c0-.82.1-.88 1.71-.88zM68.26 106.8c-.76-.87-1-3.38-1-4.53v-.14a1 1 0 0 1 1.37-.19h.06v.08c.71 2 2.31 4.3 4.7 4.3 1.77 0 3.18-.94 3.18-2.75s-1.22-3-2.83-3.87l-1.26-.69c-2.27-1.22-4.29-3-4.29-5.75 0-3.71 3.22-5.51 6.75-5.51a20.51 20.51 0 0 1 4.07.61h.15l.07.13a12 12 0 0 1 .65 4v.14a1 1 0 0 1-1.39.18l-.08-.06v-.09c-.52-1.77-1.61-3.18-3.66-3.18-1.74 0-3 .94-3 2.7 0 1.48 1.4 2.58 2.62 3.21l1.82.94c2.36 1.22 4.18 3.14 4.18 5.87 0 3.94-3.36 5.85-7.11 5.85a9.7 9.7 0 0 1-5-1.24zm31.38-4.8c0 2.37 0 3.81 2.76 3.81 4.82 0 6.79-3.49 6.79-7.92 0-4.84-2.53-7.89-7.46-7.89a6.68 6.68 0 0 0-2 .27 9 9 0 0 0-.09 1.73zm-4-9.21c0-.43.08-2.33-.27-2.64a1.41 1.41 0 0 0-.71-.18l-.66-.11-.08-.06a1 1 0 0 1 0-1.44h.18c2.33-.19 4.67-.26 7-.26a18.81 18.81 0 0 1 6.71 1 9 9 0 0 1 6 8.8 9.34 9.34 0 0 1-5.2 8.46 15.55 15.55 0 0 1-7.09 1.4c-1.36 0-2.7-.17-4-.17-1.17 0-2.35 0-3.52.08h-.2a1 1 0 0 1-.15-1.44l.09-.1.75-.1a2.22 2.22 0 0 0 .85-.21c.42-.32.36-2.19.36-2.64zM50 89.85l-.81-.24-.07-.06a1 1 0 0 1 0-1.39l.12-.13h.18c1 0 2.06.09 3.1.09s2-.06 3.05-.09h.12a.87.87 0 0 1 .15 1.54h-.07c-2.55.36-3.26 1-5 2.82-1.15 1.14-2.26 2.32-3.4 3.47a.79.79 0 0 0-.17.2.55.55 0 0 0 .12.21c2.19 2.93 4.48 5.84 6.84 8.64a2.56 2.56 0 0 0 1.81.93l.77.1.08.06a1 1 0 0 1-.14 1.5H56.51c-1.18-.06-2.36-.08-3.54-.08s-2.55 0-3.83.08H48.93a.89.89 0 0 1-.12-1.53h.07l.83-.13a.81.81 0 0 0-.08-.12c-.91-1.14-1.77-2.33-2.65-3.49a39.73 39.73 0 0 0-2.85-3.59c-.06-.07-.29-.3-.38-.3-.37 0-.25.83-.25 1.1v3.58c0 .45 0 2.32.37 2.64a2.17 2.17 0 0 0 .85.21l.8.1.08.06a1 1 0 0 1-.11 1.48h-.2c-1.25 0-2.51-.08-3.77-.08s-2.35 0-3.52.08h-.2a1 1 0 0 1-.1-1.48l.07-.06.49-.07a2.12 2.12 0 0 0 .86-.23c.42-.33.36-2.19.36-2.65V92.58c0-.46.06-2.3-.36-2.62a2.12 2.12 0 0 0-.87-.23l-.65-.11-.09-.09a1 1 0 0 1 .15-1.44h.2q1.83.09 3.66.09c1.18 0 2.37 0 3.55-.09h.19a1 1 0 0 1 .11 1.48l-.07.05-.56.1a2.57 2.57 0 0 0-.88.26c-.41.32-.36 2.14-.36 2.6v3.13a3.07 3.07 0 0 0 .08.87c.45 0 1.52-1.22 1.8-1.53l2.85-3.11a16.17 16.17 0 0 0 1.48-1.72 4.28 4.28 0 0 0 .29-.37zm25.51-20.59a11.5 11.5 0 0 0-3.18.39c-.78-7.17-4.12-14-9.83-18.34a63.51 63.51 0 0 1 13-12.45 63.81 63.81 0 0 1 13 12.46c-5.71 4.29-9.05 11.17-9.83 18.34a11.1 11.1 0 0 0-3.17-.39z"/></svg>