<svg xmlns="http://www.w3.org/2000/svg" width="905.119" height="905.119" viewBox="0 0 905.119 905.119"><g fill="#b9313a"><path d="M286.364 295.622c45.76 3.36 83.48 35.367 95.4 78.183.77 2.76 3.25 4.69 6.114 4.69h82.465a8.763 8.763 0 0 1 8.727 7.98l36.914 412.41a8.762 8.762 0 0 0 8.728 7.98H845.01c5.145 0 9.185-4.415 8.726-9.542l-60.46-675.62a8.76 8.76 0 0 0-8.727-7.98H662.47a4.874 4.874 0 0 1-4.854-4.493C652.688 48.103 601.658 0 539.265 0c-62.393 0-113.417 48.103-118.352 109.232a4.874 4.874 0 0 1-4.854 4.49H304.33a8.764 8.764 0 0 0-8.728 7.98l-14.97 167.16c-.31 3.458 2.268 6.506 5.73 6.76zM539.274 20.36c50.83 0 92.68 38.72 97.86 88.206.287 2.75-1.842 5.158-4.608 5.158H446.02c-2.765 0-4.894-2.407-4.605-5.158 5.18-49.486 47.03-88.207 97.86-88.207z"/><path d="M63.48 905.12h427.44c7.127 0 12.718-6.114 12.083-13.212l-43.23-483.012a12.13 12.13 0 0 0-12.084-11.05h-81.632c-3.188 0-5.884-2.394-6.223-5.563-4.677-43.643-41.517-77.664-86.414-77.664-44.89 0-81.736 34.012-86.414 77.663-.34 3.17-3.035 5.563-6.223 5.563H106.71a12.13 12.13 0 0 0-12.082 11.05l-43.23 483.012c-.637 7.098 4.955 13.21 12.08 13.21zm144.236-514.292c5.174-31.625 32.616-55.85 65.693-55.85s60.52 24.225 65.7 55.85c.603 3.672-2.2 7.02-5.92 7.02H213.636c-3.72-.002-6.52-3.348-5.92-7.02z"/></g></svg>