<svg xmlns="http://www.w3.org/2000/svg" viewBox="0 0 52.511 52.511"><g fill="#6e4494"><path d="M31.256 0H21.254c-10.476 0-19 8.52-19 18.995v9.01c0 7.8 4.794 14.81 12 17.665v5.84a1 1 0 0 0 1.672.742l5.8-5.252h9.53c10.476 0 19-8.52 19-18.995v-9.01C50.255 8.52 41.73 0 31.255 0zm17 28.005c0 9.37-7.626 16.995-17 16.995H21.34a.998.998 0 0 0-.672.26l-4.413 3.996v-4.28a.997.997 0 0 0-.667-.94 17.03 17.03 0 0 1-11.333-16.03v-9.01C4.255 9.623 11.88 2 21.255 2h10c9.375 0 17 7.624 17 16.995v9.01z"/><path d="M39.47 30.493L33.326 26.5a2.994 2.994 0 0 0-4.15.88l-.29.445c-2.66-.88-5.592-2.002-7.348-7.085l.727-.632a3.005 3.005 0 0 0 .294-4.233l-4.808-5.53a1 1 0 0 0-1.41-.1l-3.02 2.624c-2.648 2.3-1.41 5.706-1.004 6.825.018.05.04.098.066.145.105.188 2.612 4.662 6.66 8.786 4.066 4.14 11.405 7.965 11.63 8.076a5.006 5.006 0 0 0 6.916-1.47l2.178-3.354c.3-.465.168-1.084-.295-1.385zm-3.56 3.65c-.9 1.387-2.763 1.78-4.233.833-.073-.038-7.364-3.835-11.207-7.75-3.592-3.66-5.977-7.724-6.302-8.29-.792-2.222-.652-3.587.464-4.557l2.265-1.97 4.152 4.777a.99.99 0 0 1-.097 1.41l-1.227 1.067a1 1 0 0 0-.3 1.05c2.092 6.797 6.16 8.132 9.13 9.107l.433.144a.996.996 0 0 0 1.154-.403l.71-1.09a.988.988 0 0 1 .63-.435.99.99 0 0 1 .752.143l5.308 3.447-1.634 2.517zM28.538 16.247a1 1 0 1 0-.548 1.923 4.524 4.524 0 0 1 3.097 3.104 1 1 0 0 0 1.925-.542 6.538 6.538 0 0 0-4.474-4.485z"/><path d="M36.148 22.22a1 1 0 0 0 .963-1.27c-1.18-4.185-4.51-7.52-8.69-8.71a1 1 0 1 0-.547 1.924c3.52 1 6.32 3.808 7.313 7.327a1 1 0 0 0 .962.73z"/><path d="M27.99 7.582a1 1 0 1 0-.548 1.924c5.96 1.695 10.707 6.453 12.39 12.416a1 1 0 0 0 1.924-.542c-1.87-6.627-7.143-11.913-13.765-13.798z"/></g></svg>