<svg viewBox="0 -62 512.00199 512" xmlns="http://www.w3.org/2000/svg"><path fill="#673044" d="M334.81 170.992l-113.115-61.89c-6.504-3.56-14.19-3.426-20.566.35-6.38 3.782-10.185 10.462-10.185 17.876v122.72c0 7.378 3.782 14.046 10.118 17.83 3.308 1.977 6.976 2.97 10.652 2.97a20.74 20.74 0 0 0 9.848-2.504L334.68 207.52a20.772 20.772 0 0 0 10.937-18.223 20.763 20.763 0 0 0-10.808-18.305zM220.95 234.61v-91.72l84.538 46.258zm0 0"/><path fill="#673044" d="M508.234 91.527l-.023-.234c-.433-4.12-4.75-40.777-22.57-59.422C465.044 9.94 441.69 7.278 430.46 6c-.93-.105-1.78-.203-2.542-.305l-.895-.093C359.336.68 257.113.008 256.09.004L256 0l-.09.004C254.887.008 152.664.68 84.367 5.602l-.902.093c-.727.098-1.528.188-2.4.29-11.1 1.28-34.202 3.95-54.858 26.67C9.234 51.103 4.327 86.974 3.824 91.006l-.058.522C3.613 93.242 0 134.067 0 175.05v38.313c0 40.985 3.613 81.81 3.766 83.528l.027.258c.434 4.055 4.746 40.04 22.484 58.692 19.368 21.195 43.856 24 57.028 25.508 2.082.238 3.875.44 5.097.656l1.184.164c39.082 3.72 161.617 5.55 166.812 5.625l.157.004.156-.004c1.024-.004 103.243-.676 170.93-5.598l.895-.093c.856-.114 1.817-.215 2.87-.325 11.04-1.172 34.017-3.605 54.388-26.02 16.973-18.448 21.883-54.32 22.383-58.347l.058-.523c.153-1.72 3.77-42.54 3.77-83.524V175.05c-.004-40.984-3.617-81.804-3.77-83.523zm-26.238 121.836c0 37.934-3.312 77-3.625 80.586-1.272 9.878-6.448 32.573-14.718 41.562-12.75 14.027-25.847 15.418-35.41 16.43-1.156.12-2.226.238-3.195.36-65.47 4.733-163.832 5.46-168.363 5.487-5.082-.075-125.825-1.923-163.715-5.442-1.943-.317-4.04-.56-6.25-.81-11.216-1.284-26.568-3.042-38.372-16.026l-.278-.297c-8.125-8.465-13.152-29.688-14.43-41.15-.238-2.71-3.636-42.237-3.636-80.702V175.05c0-37.89 3.305-76.913 3.625-80.573C35.147 82.84 40.42 61.52 48.347 52.902c13.14-14.453 26.996-16.054 36.16-17.113.875-.103 1.69-.196 2.445-.294C153.375 30.738 252.445 30.03 256 30.004c3.555.023 102.59.734 168.422 5.492.808.102 1.69.203 2.64.313 9.426 1.073 23.672 2.698 36.747 16.643l.12.13c8.125 8.464 13.152 30.058 14.43 41.75.226 2.558 3.636 42.17 3.636 80.718zm0 0"/></svg>