<svg xmlns="http://www.w3.org/2000/svg" width="210mm" height="297mm" viewBox="0 0 744.09448819 1052.3622047"><path d="M276.738 138.475h7.708l-1.21 44.918H268.71l-1.974-18.545-1.975 18.545h-14.588l-1.146-44.918h7.645l.638 37.152h.828l4.778-37.152h7.58l4.906 37.152h.765l.573-37.152zM308.59 175.627v7.766h-20.897v-44.918h20.896v7.7h-13.252v10.844h10.575v7.7h-10.575v10.907h13.25zM329.928 175.627v7.766h-18.283v-44.918h7.645v37.152h10.638zM346.172 166.837l7.708-1.797v13.604c0 2.567-2.166 4.75-4.714 4.75h-11.468c-2.612 0-4.714-2.183-4.714-4.75v-35.42c0-2.632 2.103-4.75 4.714-4.75h11.467c2.548 0 4.714 2.118 4.714 4.75v9.112l-7.71 1.796v-7.957h-5.542v29.452h5.543v-8.79zM374.645 138.475c2.548 0 4.714 2.117 4.714 4.75v35.42c0 2.566-2.167 4.748-4.715 4.748h-11.468c-2.61 0-4.714-2.182-4.714-4.75v-35.42c0-2.63 2.103-4.748 4.714-4.748h11.468zm-2.994 7.7h-5.542v29.452h5.543v-29.452zM404.392 138.475h7.58v44.918h-7.644V161.32l-3.058 11.42h-7.454l-2.994-11.42v22.073h-7.645v-44.918h7.58l6.817 21.688 6.818-21.688zM436.69 175.627v7.766h-20.897v-44.918h20.896v7.7h-13.252v10.844h10.575v7.7h-10.575v10.907h13.25z"/><g><path d="M276.04 220.934l-.202.23c-1.353 1.468-3.023 2.188-4.52 2.217l2.82-4.865c1.815-3.138.145-6.104-2.677-6.104-2.303 0-4.088.922-5.815 3.917l-1.468 2.562-1.227 2.097-.154.177c-2.16 2.505-4.26 4.49-5.586 4.49-.662 0-1.037-.46-.345-1.64l6.42-11.2h2.448l.864-1.44h-2.476l2.823-4.894h-2.995l-2.822 4.895h-2.707l-.865 1.44h2.735l-6.018 10.423c-1.267 2.217-.374 4.262 2.044 4.262 1.74 0 3.662-1.31 5.51-3.084-.004 3.816 5.3 4.56 8.54.463h.662c1.785 0 4.607-1.095 6.133-2.91-.2-.403-.717-.863-1.12-1.036zm-6.392.202h-.144c-.98 0-1.756.806-1.756 1.786 0 .373.115.72.288 1.008l-.03.057c-1.41 2.42-4.836 1.958-3.05-1.15l2.273-3.946 1.44-2.446c2.1-3.57 4.98-2.16 3.166.95l-2.188 3.742zM317.496 220.934l-.202.23c-2.16 2.505-4.924 4.49-7.025 4.49-1.844 0-2.938-1.15-1.556-3.57l.288-.518c1.93.806 5.557.432 7.803-3.455l.432-.748c1.612-2.764.058-4.837-2.39-4.837-2.42 0-4.348 1.267-5.615 3.455l-2.906 4.985-.173.198c-2.16 2.505-4.26 4.49-5.586 4.49-.662 0-1.037-.46-.346-1.64l4.32-7.57c1.296-2.276.06-3.917-1.612-3.917-1.295 0-2.678.72-4.175 2.274l4.78-8.32h-2.995l-8.354 14.492-.168.192c-2.16 2.505-4.26 4.49-5.586 4.49-.662 0-1.037-.46-.345-1.64l6.42-11.2h2.448l.864-1.44h-2.476l2.824-4.894h-2.995l-2.823 4.895h-2.706l-.863 1.44h2.735l-6.018 10.423c-1.267 2.217-.374 4.262 2.044 4.262 1.213 0 2.517-.64 3.822-1.627l-.77 1.338h3.022l4.55-7.916c4.606-5.788 6.65-5.04 5.354-2.822l-3.887 6.767c-1.268 2.216-.375 4.26 2.043 4.26 1.782 0 3.757-1.374 5.647-3.216.144 1.865 1.653 3.217 4.054 3.217 3.397 0 6.766-2.648 9.243-5.528-.2-.405-.718-.865-1.12-1.038zm-5.7-4.204c1.727-2.965 4.78-2.476 2.994.634l-.432.75c-1.44 2.446-3.37 2.39-4.492 1.986l1.93-3.37zM426.665 220.934l-.2.23c-1.096 1.295-2.42 2.447-3.6 3.253.95-2.85.748-7.227 2.59-11.056l-2.245-1.208c-1.238 1.7-3.944 5.615-6.65 8.782l-.2.23c-2.16 2.505-4.262 4.49-5.587 4.49-.662 0-1.036-.46-.345-1.64l6.392-11.2h-2.994l-5.327 9.3c-2.275 2.07-4.032 3.224-4.607 2.964-.75-.316 0-1.44.374-2.072l5.845-10.193h-2.994l-4.694 8.124-.198.227c-1.354 1.468-3.023 2.188-4.52 2.217l2.82-4.865c1.814-3.138.145-6.104-2.678-6.104-2.303 0-4.088.922-5.815 3.917l-1.47 2.562-1.225 2.096-.155.178c-2.16 2.505-4.924 4.49-7.025 4.49-1.843 0-2.938-1.15-1.555-3.57l.288-.518c1.93.806 5.558.432 7.804-3.455l.432-.748c1.612-2.764.058-4.837-2.39-4.837-2.42 0-4.348 1.267-5.615 3.455l-2.903 4.984-.175.2c-2.476 2.85-4.606 4.69-6.968 5.7l6.71-11.46h-1.758c0-1.238-1.267-2.88-3.138-2.88-1.612 0-3.858 1.268-5.126 3.456l-2.87 4.957c-.003 0-.006-.003-.008-.004l-.2.23c-2.16 2.505-4.263 4.49-5.587 4.49-.662 0-1.036-.46-.346-1.64l2.996-5.24c1.036-1.815.547-2.88-.433-4.06l-1.67-2.017c-.432-.547-.432-1.152.173-1.728l-1.555-1.7c-1.698 1.527-1.842 3.226-.776 4.608l.26.346c-1.325 1.872-3.11 4.405-5.068 6.71l-.2.23c-1.353 1.467-3.022 2.187-4.52 2.216l2.82-4.866c1.815-3.138.146-6.104-2.677-6.104-2.304 0-4.09.92-5.816 3.916l-1.47 2.562-1.227 2.1-.152.175c-2.477 2.852-4.607 4.693-6.968 5.7l6.71-11.458h-1.757c0-1.238-1.267-2.88-3.14-2.88-1.61 0-3.857 1.268-5.124 3.456l-4.204 7.256c-1.267 2.217-.374 4.262 2.044 4.262.835 0 1.843-.375 2.85-1.008l-.834 1.41c-4.03 1.238-6.565 2.88-6.565 5.125 0 2.88 4.405 3.484 6.565-.2l2.275-3.946c2.396-.747 4.743-2.156 7.18-4.482-.022 3.832 5.293 4.585 8.54.48h.66c1.786 0 4.608-1.094 6.134-2.908 1.44-1.67 2.562-3.168 4.95-6.42l.404.49c.374.49.52 1.093.173 1.698l-3.167 5.5c-1.268 2.217-.375 4.262 2.044 4.262 1.518 0 3.176-.997 4.802-2.43-.05 1.39.88 2.43 2.597 2.43.835 0 1.843-.375 2.85-1.008l-.834 1.41c-4.032 1.237-6.565 2.878-6.565 5.124 0 2.88 4.405 3.484 6.564-.2l2.273-3.946c2.44-.76 4.83-2.214 7.315-4.617.134 1.876 1.647 3.237 4.057 3.237 2.438 0 4.86-1.367 6.948-3.2-.118 3.92 5.266 4.72 8.54.58h.663c.938 0 2.158-.31 3.33-.857-.806 2.08-.064 3.478 1.65 3.478 1.64 0 3.482-1.498 4.922-2.88-.288 1.612.662 2.88 2.562 2.88 2.477 0 5.327-2.65 7.804-5.53 1.697-1.958 3.194-4.06 4.26-5.47-1.18 3.11-.548 8.696-3.398 8.696-1.008 0-1.41-1.094-1.41-1.094l-1.872.98s.547 2.42 3.282 2.42c.288 0 .548-.03.835-.06.03 0 .06-.028.088-.028 3.052-.403 6.075-2.82 8.32-5.442-.173-.46-.692-.92-1.123-1.036zm-42.983-4.204c1.728-2.965 4.78-2.476 2.994.634l-.432.75c-1.44 2.446-3.37 2.39-4.492 1.986l1.93-3.37zm-57.176 15.605c-.634 1.123-1.64.95-1.64.145 0-.777.72-1.67 2.993-2.562l-1.354 2.417zm1.382-6.68c-.662 0-1.037-.46-.345-1.64l4.175-7.285c1.612-2.793 4.81-2.073 3.34.634l-2.274 3.973c-1.815 2.91-3.63 4.32-4.896 4.32zm18.397-4.52h-.145c-.98 0-1.756.807-1.756 1.787 0 .373.115.72.288 1.008l-.03.057c-1.41 2.42-4.836 1.958-3.05-1.15l2.273-3.946 1.44-2.446c2.102-3.57 4.98-2.16 3.167.95l-2.187 3.742zm18.827 11.2c-.634 1.123-1.642.95-1.642.145 0-.777.72-1.67 2.995-2.562l-1.353 2.417zm1.382-6.68c-.662 0-1.036-.46-.346-1.64l4.176-7.285c1.612-2.793 4.808-2.073 3.34.634l-2.275 3.973c-1.815 2.91-3.63 4.32-4.896 4.32zm29.54-4.52h-.146c-.98 0-1.756.807-1.756 1.787 0 .373.115.72.288 1.008l-.03.057c-1.41 2.42-4.836 1.958-3.05-1.15l2.273-3.946 1.44-2.446c2.102-3.57 4.98-2.16 3.167.95l-2.187 3.742z"/></g><path d="M212.04 217.755h28.918v1.958H212.04zM439.04 217.755h28.92v1.958h-28.92z"/></svg>