<?xml version="1.0" encoding="utf-8"?>
<!-- Generator: Adobe Illustrator 23.0.1, SVG Export Plug-In . SVG Version: 6.00 Build 0)  -->
<svg version="1.1" id="Layer_1" xmlns="http://www.w3.org/2000/svg" xmlns:xlink="http://www.w3.org/1999/xlink" x="0px" y="0px"
	 viewBox="0 0 138 150.2" style="enable-background:new 0 0 138 150.2;" xml:space="preserve">
<style type="text/css">
	.st0{fill:#1A1819;}
</style>
<path class="st0" d="M120.6,6L76.5,5.8l-12.1,0l-0.1,12.1L64,133l-45.5-0.2L18.9,7.2c0-1.1-1-2.1-2.1-2.1L5.3,5l0,0
	c1,0.9,1.5,2.3,1.5,3.5L6.4,132.9l0,12.1l12.1,0l44.8,0.2l12.8,0.1l44.8,0.2l12.1,0l0-12.1l0.2-51.1l0.1-12.8l0.2-50.4l0-4.3
	c0-4.6-3.8-8.4-8.4-8.5L120.6,6L120.6,6z M121.1,69.2l-14.9-0.1l0,8.6c0,1.1,1,2.1,2.1,2.1l12.8,0.1l-0.2,53.2l-44.8-0.2l0.4-115.1
	l-4.8,0l4.8,0l42,0.2c1.5,0,2.8,1.3,2.8,2.8L121.1,69.2z"/>
</svg>
