<svg xmlns="http://www.w3.org/2000/svg" height="512" viewBox="-55 0 511 511.9999" width="512"><path d="M335.176 190.992c0-73.797-60.04-133.836-133.836-133.836-73.8 0-133.84 60.04-133.84 133.836 0 73.801 60.04 133.84 133.84 133.84 73.797 0 133.836-60.039 133.836-133.84zM201.34 309.832c-65.528 0-118.84-53.312-118.84-118.84 0-65.523 53.313-118.836 118.84-118.836s118.836 53.313 118.836 118.836c0 65.528-53.309 118.84-118.836 118.84zm0 0" data-original="#000000" class="active-path" data-old_color="#000000" fill="#FF9818"/><path d="M294.547 161.652a10.508 10.508 0 0 0-10.024-7.285h-55.89l-17.27-53.152a10.517 10.517 0 0 0-10.023-7.281 10.517 10.517 0 0 0-10.024 7.28l-17.27 53.157h-55.89a10.51 10.51 0 0 0-10.023 7.281 10.515 10.515 0 0 0 3.828 11.782l45.215 32.851-17.27 53.153a10.515 10.515 0 0 0 3.828 11.785 10.517 10.517 0 0 0 12.391 0l45.215-32.852 45.215 32.852a10.518 10.518 0 0 0 12.39 0 10.515 10.515 0 0 0 3.828-11.786L245.5 206.286l45.215-32.851a10.51 10.51 0 0 0 3.832-11.782zm-60.485 34.403a10.519 10.519 0 0 0-3.828 11.785l14.028 43.176-36.727-26.684a10.518 10.518 0 0 0-12.39 0l-36.727 26.684 14.027-43.18a10.515 10.515 0 0 0-3.828-11.781l-36.73-26.688h45.402c4.578 0 8.606-2.926 10.024-7.281l14.027-43.18 14.027 43.18a10.517 10.517 0 0 0 10.024 7.281h45.402zm0 0" data-original="#000000" class="active-path" data-old_color="#000000" fill="#FF9818"/><path d="M400.64 439.113l-70.324-123.46 12.32-3.954c14.844-4.758 24.641-18.953 23.829-34.52l-.934-17.878a19.403 19.403 0 0 1 5.531-14.594l12.56-12.762c10.929-11.113 13.007-28.234 5.054-41.64l-9.137-15.395a19.43 19.43 0 0 1-1.883-15.496l5.188-17.137c4.515-14.918-1.602-31.043-14.871-39.214l-15.246-9.391a19.404 19.404 0 0 1-8.868-12.844l-3.37-17.582c-2.934-15.309-15.844-26.746-31.395-27.816l-17.864-1.227a19.401 19.401 0 0 1-13.816-7.254l-11.16-14.004C256.543.758 239.793-3.367 225.53 2.91l-16.386 7.215h-.004a19.407 19.407 0 0 1-15.606 0L177.148 2.91c-14.265-6.277-31.011-2.152-40.726 10.04l-11.156 14a19.401 19.401 0 0 1-13.817 7.253L93.586 35.43C78.036 36.5 65.125 47.938 62.19 63.246l-3.37 17.582a19.426 19.426 0 0 1-8.868 12.844l-15.246 9.387c-13.27 8.171-19.387 24.3-14.871 39.218l5.184 17.137a19.404 19.404 0 0 1-1.88 15.492l-9.136 15.399c-7.953 13.402-5.875 30.527 5.055 41.636l12.558 12.766a19.409 19.409 0 0 1 5.531 14.59l-.933 17.883c-.813 15.562 8.984 29.757 23.824 34.52l12.324 3.948L2.04 439.113a11.735 11.735 0 0 0 .207 11.973 11.732 11.732 0 0 0 10.606 5.562l58.777-3.043 27.363 52.114a11.736 11.736 0 0 0 10.195 6.277c.067 0 .133.004.2.004 4.215 0 8.113-2.258 10.203-5.93l71.566-125.648a34.399 34.399 0 0 0 10.184 1.562c3.437 0 6.867-.535 10.183-1.562L283.09 506.07a11.731 11.731 0 0 0 10.2 5.93c.065 0 .136 0 .202-.004 4.293-.07 8.2-2.476 10.195-6.277l27.36-52.114 58.781 3.043a11.708 11.708 0 0 0 10.602-5.562 11.735 11.735 0 0 0 .21-11.973zm-291.136 54.36l-24.922-47.461 14.715-25.828a7.499 7.499 0 1 0-13.031-7.426L71.55 438.59l-53.531 2.773 67.585-118.652a19.398 19.398 0 0 1 3.165 4.805l7.484 16.27c3.883 8.44 10.883 14.698 19.152 17.804l-11.719 20.578a7.503 7.503 0 0 0 2.805 10.23c1.172.664 2.45.98 3.707.98a7.495 7.495 0 0 0 6.524-3.788l14.84-26.05a32.992 32.992 0 0 0 1.828-.267l17.64-3.082a19.412 19.412 0 0 1 15.149 3.735l11.894 9.16zM211.09 364.34c-.028.015-.05.023-.074.039-.04.023-.078.05-.118.074a19.372 19.372 0 0 1-19.117 0c-.039-.023-.074-.05-.117-.074-.023-.016-.047-.024-.07-.04a19.097 19.097 0 0 1-2.07-1.37l-14.188-10.926a34.454 34.454 0 0 0-21-7.14c-1.961 0-3.93.171-5.887.511l-17.64 3.082c-1.137.2-2.274.29-3.399.285-.094-.004-.183-.008-.273-.008-7.325-.128-14.106-4.414-17.254-11.261l-7.485-16.266c-3.199-6.957-8.648-12.61-15.355-16.11-.016-.007-.027-.019-.043-.027-.043-.023-.086-.043-.125-.062-.16-.082-.32-.164-.48-.242a1.35 1.35 0 0 0-.11-.051 34.133 34.133 0 0 0-4.613-1.871l-17.05-5.465c-8.364-2.684-13.888-10.684-13.427-19.453l.934-17.883a34.446 34.446 0 0 0-9.82-25.89l-12.555-12.766c-6.16-6.262-7.332-15.91-2.852-23.465l9.137-15.399a34.45 34.45 0 0 0 3.34-27.492l-5.188-17.136c-2.546-8.407.903-17.496 8.383-22.098l15.246-9.39a34.439 34.439 0 0 0 15.73-22.794l3.372-17.582c1.652-8.625 8.93-15.07 17.691-15.675l17.864-1.227a34.455 34.455 0 0 0 24.52-12.871l11.155-14a19.386 19.386 0 0 1 22.953-5.656l16.383 7.21a34.444 34.444 0 0 0 27.696 0l16.386-7.21c8.043-3.54 17.477-1.215 22.95 5.656L265.68 36.3a34.443 34.443 0 0 0 24.52 12.867l17.863 1.23c8.761.602 16.039 7.047 17.69 15.672l3.372 17.586a34.457 34.457 0 0 0 15.73 22.79l15.247 9.39c7.48 4.605 10.93 13.691 8.382 22.098l-5.187 17.14a34.454 34.454 0 0 0 3.34 27.492l9.136 15.395c4.48 7.555 3.313 17.203-2.851 23.465l-12.555 12.765a34.449 34.449 0 0 0-9.82 25.895l.933 17.879c.461 8.77-5.062 16.77-13.425 19.453l-17.051 5.465a34.63 34.63 0 0 0-4.613 1.867c-.04.02-.075.035-.11.05-.16.083-.324.165-.484.247-.04.023-.082.039-.121.062-.016.008-.028.016-.04.024-6.71 3.5-12.16 9.156-15.359 16.113l-7.484 16.27c-3.145 6.84-9.918 11.125-17.238 11.257-.106 0-.215.004-.32.012-1.118 0-2.243-.09-3.372-.289l-17.636-3.082a34.45 34.45 0 0 0-26.891 6.629l-14.184 10.926a19 19 0 0 1-2.062 1.37zm120.039 74.25l-14.836-26.043a7.496 7.496 0 0 0-10.227-2.805 7.499 7.499 0 0 0-2.804 10.23l14.832 26.04-24.918 47.46-68.57-120.386 11.89-9.16a19.417 19.417 0 0 1 15.152-3.735l17.637 3.082a32.2 32.2 0 0 0 1.832.266l14.832 26.043a7.503 7.503 0 0 0 10.23 2.805 7.505 7.505 0 0 0 2.805-10.23L287.27 361.59c8.27-3.11 15.27-9.363 19.152-17.805l7.484-16.27a19.398 19.398 0 0 1 3.164-4.804l67.586 118.652zm0 0" data-original="#000000" class="active-path" data-old_color="#000000" fill="#FF9818"/></svg>